<svg width="372" height="55" viewBox="0 0 372 55" fill="none" xmlns="http://www.w3.org/2000/svg">
<path d="M12 8C12 3.58172 15.5817 0 20 0H76C80.4183 0 84 3.58172 84 8V40C84 44.4183 80.4183 48 76 48H20C15.5817 48 12 44.4183 12 40V8Z" fill="url(#paint0_linear_1_471)"/>
<path d="M38.4444 15.6001L45.3924 24.8665L38.4 32.4001H39.9744L46.0968 25.8037L51.0444 32.4001H56.4L49.0596 22.6129L55.5684 15.6001H53.9952L48.3552 21.6745L43.8 15.6001H38.4444ZM40.758 16.7557H43.2192L54.0852 31.2433H51.6252L40.758 16.7557Z" fill="#E5E5F5"/>
<path d="M96 8C96 3.58172 99.5817 0 104 0H160C164.418 0 168 3.58172 168 8V40C168 44.4183 164.418 48 160 48H104C99.5817 48 96 44.4183 96 40V8Z" fill="url(#paint1_linear_1_471)"/>
<path fill-rule="evenodd" clip-rule="evenodd" d="M141.39 15.8637C142.418 16.1492 143.229 16.9853 143.506 18.0457C144.02 19.9829 144 24.0205 144 24.0205C144 24.0205 144 28.0378 143.506 29.9751C143.229 31.0355 142.418 31.8715 141.39 32.157C139.512 32.6668 132 32.6668 132 32.6668C132 32.6668 124.507 32.6668 122.61 32.1367C121.582 31.8511 120.771 31.0151 120.494 29.9547C120 28.0378 120 24.0002 120 24.0002C120 24.0002 120 19.9829 120.494 18.0457C120.771 16.9853 121.601 16.1288 122.61 15.8433C124.488 15.3335 132 15.3335 132 15.3335C132 15.3335 139.512 15.3335 141.39 15.8637ZM135.855 23.9999L129.608 27.7114V20.2886L135.855 23.9999Z" fill="#E5E5F5"/>
<path d="M180 8C180 3.58172 183.582 0 188 0H244C248.418 0 252 3.58172 252 8V40C252 44.4183 248.418 48 244 48H188C183.582 48 180 44.4183 180 40V8Z" fill="url(#paint2_linear_1_471)"/>
<g clip-path="url(#clip0_1_471)">
<path d="M222.167 15.7597C221.254 14.7199 220.75 13.3836 220.75 12H219.645C219.788 12.7648 220.085 13.4925 220.519 14.1389C220.952 14.7853 221.514 15.3367 222.167 15.7597Z" fill="#E5E5F5"/>
<path d="M211.713 23.8073C210.871 23.8117 210.074 24.2034 209.414 24.6844C208.754 25.1653 208.286 25.836 208.086 26.5899C207.887 27.3439 207.965 28.1378 208.311 28.8455C208.656 29.5534 209.552 30.0701 210.296 30.4322C209.889 29.9137 209.341 29.3657 209.288 28.7273C209.234 28.0889 209.373 27.4495 209.689 26.8793C210.005 26.3092 210.485 25.8307 211.077 25.4967C211.669 25.1627 212.35 24.9862 213.044 24.9867C213.422 24.9903 213.798 25.0442 214.159 25.1466V20.9281C213.79 20.8772 213.417 20.8507 213.044 20.8486H212.841L212.678 23.8716C212.317 23.7822 212.087 23.7979 211.713 23.8073Z" fill="#E5E5F5"/>
<path d="M225.297 17.623V20.8222C223.235 20.8177 221.227 20.1651 219.557 18.9568V27.3632C219.552 29.3777 218.748 31.3082 217.321 32.7312C215.893 34.1541 213.959 34.9533 211.943 34.9533C210.383 34.9563 208.861 34.4757 207.586 33.5777C208.626 34.6944 209.977 35.4726 211.466 35.811C212.954 36.1493 214.51 36.032 215.931 35.4744C217.351 34.9167 218.571 33.9447 219.431 32.6847C220.29 31.4247 220.75 29.9354 220.751 28.4105V20.0303C222.427 21.2306 224.438 21.8744 226.5 21.8705V17.7508C226.096 17.7499 225.693 17.7071 225.297 17.623Z" fill="#E5E5F5"/>
<path d="M219.557 27.3651V18.9588C221.234 20.16 223.364 21.0471 225.427 21.0417L225.363 17.6328C224.144 17.3759 222.99 16.6966 222.171 15.7597C221.517 15.3367 220.957 14.7853 220.523 14.1389C220.09 13.4925 219.793 12.7648 219.65 12H216.618V28.5571C216.589 29.2778 216.336 29.9713 215.893 30.5415C215.451 31.1117 214.842 31.53 214.151 31.7385C213.46 31.947 212.721 31.9353 212.037 31.705C211.352 31.4746 210.757 31.0371 210.333 30.4533C209.648 30.0924 209.102 29.5131 208.784 28.8072C208.466 28.1013 208.393 27.3095 208.577 26.5575C208.761 25.8055 209.192 25.1365 209.8 24.6569C210.408 24.1773 211.16 23.9145 211.934 23.9104C212.283 23.9133 212.629 23.967 212.961 24.0699V20.8699C211.489 20.8949 210.055 21.3474 208.835 22.1722C207.616 22.9971 206.663 24.1586 206.092 25.5152C205.522 26.8718 205.359 28.3648 205.623 29.8123C205.888 31.2598 206.568 32.5993 207.581 33.6673C208.868 34.5345 210.391 34.9834 211.943 34.9531C213.959 34.9531 215.893 34.1539 217.321 32.731C218.748 31.3084 219.552 29.3793 219.557 27.3651Z" fill="#E5E5F5"/>
</g>
<path d="M264 8C264 3.58172 267.582 0 272 0H328C332.418 0 336 3.58172 336 8V40C336 44.4183 332.418 48 328 48H272C267.582 48 264 44.4183 264 40V8Z" fill="url(#paint3_linear_1_471)"/>
<g clip-path="url(#clip1_1_471)">
<mask id="mask0_1_471" style="mask-type:luminance" maskUnits="userSpaceOnUse" x="288" y="12" width="24" height="24">
<path d="M312 12H288V36H312V12Z" fill="white"/>
</mask>
<g mask="url(#mask0_1_471)">
<path fill-rule="evenodd" clip-rule="evenodd" d="M296.845 16.0179C296.845 16.0179 294.118 15.9098 291.175 18.1642C291.175 18.1642 288.233 23.4775 288.233 30.0279C288.233 30.0279 289.864 32.9684 294.336 33.08C294.336 33.08 294.989 32.1792 295.649 31.3867C293.137 30.5958 292.159 29.0139 292.159 29.0139L292.999 29.4635C293.16 29.5326 293.323 29.6028 293.486 29.6736L293.488 29.6744C295.807 30.6787 298.359 31.7839 302.682 31.0452L302.75 31.0295C303.705 30.8067 304.662 30.5836 305.617 30.1411C305.792 30.0479 305.978 29.9547 306.174 29.8567C306.69 29.5992 307.272 29.308 307.894 28.8956C307.894 28.8956 306.915 30.4774 304.299 31.2683C304.838 32.0559 305.596 32.9583 305.596 32.9583C309.261 32.8752 311.09 30.8862 311.685 30.239C311.817 30.0963 311.888 30.0188 311.905 30.0414C311.905 23.5012 308.946 18.1777 308.946 18.1777C306.3 16.1413 303.828 16.05 303.361 16.0483L303.063 16.3576C306.442 17.3716 308.077 18.9551 308.077 18.9551C303.175 16.4134 297.88 16.268 293.031 18.2757C292.268 18.6188 291.832 18.8436 291.832 18.8436C291.832 18.8436 293.464 17.1502 297.065 16.2461L296.845 16.0179ZM303.681 28.1078C304.813 28.1078 305.734 27.0682 305.734 25.7859C305.734 24.5125 304.817 23.4729 303.681 23.4729V23.4781C302.555 23.4781 301.632 24.5142 301.629 25.7963C301.629 27.0682 302.55 28.1078 303.681 28.1078ZM298.386 25.7859C298.386 27.0682 297.465 28.1078 296.334 28.1078C295.202 28.1078 294.281 27.0682 294.281 25.7963C294.281 24.5142 295.202 23.4781 296.334 23.4781L296.34 23.4729C297.471 23.4729 298.386 24.5125 298.386 25.7859Z" fill="#E5E5F5"/>
<path d="M303.371 16.0398L303.424 16.0195H303.39L303.371 16.0398Z" fill="#E5E5F5"/>
</g>
</g>
<defs>
<linearGradient id="paint0_linear_1_471" x1="12" y1="24" x2="84" y2="24" gradientUnits="userSpaceOnUse">
<stop stop-color="#06100A" stop-opacity="0.56"/>
<stop offset="1" stop-color="#2C764A" stop-opacity="0"/>
</linearGradient>
<linearGradient id="paint1_linear_1_471" x1="96" y1="24" x2="168" y2="24" gradientUnits="userSpaceOnUse">
<stop stop-color="#06100A" stop-opacity="0.56"/>
<stop offset="1" stop-color="#2C764A" stop-opacity="0"/>
</linearGradient>
<linearGradient id="paint2_linear_1_471" x1="180" y1="24" x2="252" y2="24" gradientUnits="userSpaceOnUse">
<stop stop-color="#06100A" stop-opacity="0.56"/>
<stop offset="1" stop-color="#2C764A" stop-opacity="0"/>
</linearGradient>
<linearGradient id="paint3_linear_1_471" x1="264" y1="24" x2="336" y2="24" gradientUnits="userSpaceOnUse">
<stop stop-color="#06100A" stop-opacity="0.56"/>
<stop offset="1" stop-color="#2C764A" stop-opacity="0"/>
</linearGradient>
<clipPath id="clip0_1_471">
<rect width="24" height="24" fill="white" transform="translate(204 12)"/>
</clipPath>
<clipPath id="clip1_1_471">
<rect width="24" height="24" fill="white" transform="translate(288 12)"/>
</clipPath>
</defs>
</svg>
