<svg width="530" height="140" viewBox="0 0 530 140" fill="none" xmlns="http://www.w3.org/2000/svg">
<path d="M21.6974 19.5018C23.4768 19.9036 24.8831 20.7933 25.9163 22.1709C26.9782 23.5199 27.5092 25.0697 27.5092 26.8204C27.5092 29.4034 26.6195 31.4268 24.8401 32.8905C23.0607 34.3542 20.5637 35.0861 17.3493 35.0861H2.32472V4.73554H16.8758C19.9754 4.73554 22.4006 5.42435 24.1513 6.80196C25.9307 8.17957 26.8204 10.1168 26.8204 12.6138C26.8204 14.3932 26.3468 15.8856 25.3997 17.091C24.4813 18.2677 23.2472 19.0713 21.6974 19.5018ZM10.7626 16.7896H15.0246C17.1484 16.7896 18.2103 15.9143 18.2103 14.1636C18.2103 12.3555 17.1484 11.4514 15.0246 11.4514H10.7626V16.7896ZM15.6703 28.2841C17.7942 28.2841 18.8561 27.3944 18.8561 25.615C18.8561 24.6966 18.5691 23.9934 17.9951 23.5055C17.4498 23.0176 16.6605 22.7737 15.6273 22.7737H10.7626V28.2841H15.6703ZM55.9181 10.9348V35.0861H47.4372V31.642C46.7196 32.7326 45.7295 33.6223 44.4667 34.3112C43.2039 34.9713 41.7545 35.3013 40.1186 35.3013C37.306 35.3013 35.0817 34.3829 33.4458 32.5461C31.8386 30.6806 31.035 28.1549 31.035 24.9692V10.9348H39.4298V23.893C39.4298 25.2706 39.7885 26.3612 40.506 27.1648C41.2522 27.9397 42.2281 28.3272 43.4335 28.3272C44.6676 28.3272 45.6434 27.9397 46.3609 27.1648C47.0784 26.3612 47.4372 25.2706 47.4372 23.893V10.9348H55.9181ZM86.7226 10.9348L71.3967 46.5805H62.227L67.9957 34.0529L58.0941 10.9348H67.4791L72.5591 24.6248L77.4668 10.9348H86.7226ZM124.765 4.73554L114.089 25.4428V35.0861H105.608V25.4428L94.9315 4.73554H104.575L109.913 16.4452L115.251 4.73554H124.765ZM138.592 35.3874C136.181 35.3874 134.014 34.8852 132.091 33.8807C130.197 32.8761 128.705 31.4411 127.614 29.5756C126.524 27.7101 125.978 25.5145 125.978 22.9889C125.978 20.492 126.524 18.3108 127.614 16.4452C128.733 14.5797 130.24 13.1447 132.134 12.1402C134.057 11.1357 136.224 10.6334 138.635 10.6334C141.046 10.6334 143.198 11.1357 145.093 12.1402C147.015 13.1447 148.522 14.5797 149.613 16.4452C150.732 18.3108 151.292 20.492 151.292 22.9889C151.292 25.4858 150.732 27.6814 149.613 29.5756C148.522 31.4411 147.015 32.8761 145.093 33.8807C143.17 34.8852 141.003 35.3874 138.592 35.3874ZM138.592 28.0688C139.769 28.0688 140.744 27.6383 141.519 26.7773C142.323 25.8876 142.725 24.6248 142.725 22.9889C142.725 21.353 142.323 20.1045 141.519 19.2435C140.744 18.3825 139.783 17.952 138.635 17.952C137.487 17.952 136.526 18.3825 135.751 19.2435C134.976 20.1045 134.588 21.353 134.588 22.9889C134.588 24.6535 134.961 25.9163 135.708 26.7773C136.454 27.6383 137.415 28.0688 138.592 28.0688ZM179.436 10.9348V35.0861H170.955V31.642C170.237 32.7326 169.247 33.6223 167.984 34.3112C166.721 34.9713 165.272 35.3013 163.636 35.3013C160.824 35.3013 158.599 34.3829 156.963 32.5461C155.356 30.6806 154.553 28.1549 154.553 24.9692V10.9348H162.947V23.893C162.947 25.2706 163.306 26.3612 164.024 27.1648C164.77 27.9397 165.746 28.3272 166.951 28.3272C168.185 28.3272 169.161 27.9397 169.879 27.1648C170.596 26.3612 170.955 25.2706 170.955 23.893V10.9348H179.436ZM192.676 15.1968C193.623 13.8192 194.771 12.7286 196.12 11.925C197.469 11.1213 198.918 10.7195 200.468 10.7195V19.7171H198.1C196.263 19.7171 194.9 20.0758 194.01 20.7933C193.121 21.5108 192.676 22.7593 192.676 24.5387V35.0861H184.238V10.9348H192.676V15.1968ZM232.311 4.73554V11.4514H220.171V16.7896H229.125V23.2042H220.171V35.0861H211.733V4.73554H232.311ZM234.487 22.9889C234.487 20.492 234.932 18.3108 235.822 16.4452C236.74 14.5797 237.974 13.1447 239.524 12.1402C241.102 11.1357 242.853 10.6334 244.776 10.6334C246.441 10.6334 247.876 10.9635 249.081 11.6236C250.287 12.2837 251.219 13.1734 251.879 14.2927V10.9348H260.317V35.0861H251.879V31.7281C251.219 32.8474 250.272 33.7372 249.038 34.3973C247.833 35.0574 246.412 35.3874 244.776 35.3874C242.853 35.3874 241.102 34.8852 239.524 33.8807C237.974 32.8761 236.74 31.4411 235.822 29.5756C234.932 27.6814 234.487 25.4858 234.487 22.9889ZM251.879 22.9889C251.879 21.4391 251.449 20.2193 250.588 19.3296C249.756 18.4399 248.722 17.9951 247.488 17.9951C246.225 17.9951 245.178 18.4399 244.346 19.3296C243.513 20.1906 243.097 21.4104 243.097 22.9889C243.097 24.5387 243.513 25.7728 244.346 26.6912C245.178 27.5809 246.225 28.0258 247.488 28.0258C248.722 28.0258 249.756 27.5809 250.588 26.6912C251.449 25.8015 251.879 24.5674 251.879 22.9889ZM276.706 27.1217L281.226 10.9348H290.224L281.915 35.0861H271.411L263.102 10.9348H272.1L276.706 27.1217ZM304.319 35.3874C301.908 35.3874 299.741 34.8852 297.819 33.8807C295.924 32.8761 294.432 31.4411 293.341 29.5756C292.251 27.7101 291.705 25.5145 291.705 22.9889C291.705 20.492 292.251 18.3108 293.341 16.4452C294.461 14.5797 295.967 13.1447 297.862 12.1402C299.784 11.1357 301.951 10.6334 304.362 10.6334C306.773 10.6334 308.926 11.1357 310.82 12.1402C312.743 13.1447 314.249 14.5797 315.34 16.4452C316.459 18.3108 317.019 20.492 317.019 22.9889C317.019 25.4858 316.459 27.6814 315.34 29.5756C314.249 31.4411 312.743 32.8761 310.82 33.8807C308.897 34.8852 306.73 35.3874 304.319 35.3874ZM304.319 28.0688C305.496 28.0688 306.472 27.6383 307.247 26.7773C308.05 25.8876 308.452 24.6248 308.452 22.9889C308.452 21.353 308.05 20.1045 307.247 19.2435C306.472 18.3825 305.51 17.952 304.362 17.952C303.214 17.952 302.253 18.3825 301.478 19.2435C300.703 20.1045 300.315 21.353 300.315 22.9889C300.315 24.6535 300.689 25.9163 301.435 26.7773C302.181 27.6383 303.142 28.0688 304.319 28.0688ZM328.89 15.1968C329.837 13.8192 330.985 12.7286 332.334 11.925C333.683 11.1213 335.132 10.7195 336.682 10.7195V19.7171H334.314C332.477 19.7171 331.114 20.0758 330.224 20.7933C329.335 21.5108 328.89 22.7593 328.89 24.5387V35.0861H320.452V10.9348H328.89V15.1968ZM343.969 8.69617C342.476 8.69617 341.271 8.29437 340.353 7.49076C339.463 6.65846 339.018 5.62525 339.018 4.39113C339.018 3.12832 339.463 2.08077 340.353 1.24846C341.271 0.41615 342.476 -4.29656e-06 343.969 -4.29656e-06C345.433 -4.29656e-06 346.609 0.41615 347.499 1.24846C348.417 2.08077 348.877 3.12832 348.877 4.39113C348.877 5.62525 348.417 6.65846 347.499 7.49076C346.609 8.29437 345.433 8.69617 343.969 8.69617ZM348.145 10.9348V35.0861H339.707V10.9348H348.145ZM367.2 27.8966V35.0861H363.54C357.37 35.0861 354.284 32.0295 354.284 25.9163V17.952H351.314V10.9348H354.284V5.07994H362.765V10.9348H367.157V17.952H362.765V26.0455C362.765 26.7056 362.909 27.1791 363.196 27.4661C363.512 27.7531 364.028 27.8966 364.746 27.8966H367.2ZM394.145 22.7306C394.145 23.3907 394.102 24.0508 394.016 24.7109H378.044C378.13 26.0311 378.489 27.0213 379.12 27.6814C379.78 28.3128 380.613 28.6285 381.617 28.6285C383.023 28.6285 384.028 27.9971 384.631 26.7343H393.628C393.255 28.3989 392.523 29.8913 391.433 31.2115C390.371 32.503 389.022 33.5219 387.386 34.2681C385.75 35.0143 383.942 35.3874 381.962 35.3874C379.579 35.3874 377.456 34.8852 375.59 33.8807C373.753 32.8761 372.304 31.4411 371.242 29.5756C370.209 27.7101 369.692 25.5145 369.692 22.9889C369.692 20.4633 370.209 18.2821 371.242 16.4452C372.275 14.5797 373.71 13.1447 375.547 12.1402C377.413 11.1357 379.551 10.6334 381.962 10.6334C384.344 10.6334 386.453 11.1213 388.29 12.0972C390.127 13.073 391.562 14.4793 392.595 16.3161C393.628 18.1242 394.145 20.2624 394.145 22.7306ZM385.535 20.6211C385.535 19.5879 385.19 18.7843 384.501 18.2103C383.813 17.6076 382.952 17.3063 381.918 17.3063C380.885 17.3063 380.039 17.5933 379.378 18.1673C378.718 18.7126 378.288 19.5305 378.087 20.6211H385.535ZM414.276 4.73554V35.0861H405.838V4.73554H414.276ZM433.331 27.8966V35.0861H429.671C423.501 35.0861 420.416 32.0295 420.416 25.9163V17.952H417.445V10.9348H420.416V5.07994H428.897V10.9348H433.288V17.952H428.897V26.0455C428.897 26.7056 429.04 27.1791 429.327 27.4661C429.643 27.7531 430.159 27.8966 430.877 27.8966H433.331ZM460.276 22.7306C460.276 23.3907 460.233 24.0508 460.147 24.7109H444.175C444.261 26.0311 444.62 27.0213 445.251 27.6814C445.911 28.3128 446.744 28.6285 447.748 28.6285C449.155 28.6285 450.159 27.9971 450.762 26.7343H459.759C459.386 28.3989 458.654 29.8913 457.564 31.2115C456.502 32.503 455.153 33.5219 453.517 34.2681C451.881 35.0143 450.073 35.3874 448.093 35.3874C445.711 35.3874 443.587 34.8852 441.721 33.8807C439.884 32.8761 438.435 31.4411 437.373 29.5756C436.34 27.7101 435.823 25.5145 435.823 22.9889C435.823 20.4633 436.34 18.2821 437.373 16.4452C438.406 14.5797 439.841 13.1447 441.678 12.1402C443.544 11.1357 445.682 10.6334 448.093 10.6334C450.475 10.6334 452.584 11.1213 454.421 12.0972C456.258 13.073 457.693 14.4793 458.726 16.3161C459.759 18.1242 460.276 20.2624 460.276 22.7306ZM451.666 20.6211C451.666 19.5879 451.321 18.7843 450.633 18.2103C449.944 17.6076 449.083 17.3063 448.05 17.3063C447.016 17.3063 446.17 17.5933 445.51 18.1673C444.849 18.7126 444.419 19.5305 444.218 20.6211H451.666ZM495.285 10.7195C498.327 10.7195 500.709 11.638 502.431 13.4748C504.182 15.3116 505.057 17.8229 505.057 21.0086V35.0861H496.619V22.1279C496.619 20.8364 496.261 19.8319 495.543 19.1144C494.826 18.3969 493.85 18.0381 492.616 18.0381C491.382 18.0381 490.406 18.3969 489.688 19.1144C488.971 19.8319 488.612 20.8364 488.612 22.1279V35.0861H480.174V22.1279C480.174 20.8364 479.815 19.8319 479.098 19.1144C478.409 18.3969 477.448 18.0381 476.214 18.0381C474.951 18.0381 473.961 18.3969 473.243 19.1144C472.526 19.8319 472.167 20.8364 472.167 22.1279V35.0861H463.729V10.9348H472.167V14.1205C472.913 13.0873 473.875 12.2694 475.051 11.6667C476.257 11.0352 477.634 10.7195 479.184 10.7195C480.964 10.7195 482.542 11.107 483.92 11.8819C485.326 12.6568 486.431 13.7474 487.235 15.1537C488.096 13.8335 489.229 12.7716 490.635 11.968C492.042 11.1357 493.592 10.7195 495.285 10.7195ZM519.969 35.3874C517.788 35.3874 515.836 35.0287 514.114 34.3112C512.421 33.5649 511.072 32.5604 510.068 31.2976C509.092 30.0061 508.547 28.5568 508.432 26.9495H516.611C516.726 27.7244 517.085 28.3272 517.688 28.7577C518.29 29.1882 519.037 29.4034 519.926 29.4034C520.615 29.4034 521.16 29.2599 521.562 28.9729C521.964 28.6859 522.165 28.3128 522.165 27.8536C522.165 27.2509 521.835 26.806 521.175 26.519C520.515 26.232 519.424 25.9163 517.903 25.5719C516.181 25.2275 514.746 24.8401 513.598 24.4096C512.45 23.9791 511.445 23.2759 510.584 22.3001C509.752 21.3243 509.336 20.0041 509.336 18.3395C509.336 16.9044 509.723 15.6129 510.498 14.4649C511.273 13.2882 512.407 12.3555 513.899 11.6667C515.42 10.9778 517.243 10.6334 519.367 10.6334C522.524 10.6334 525.006 11.4083 526.814 12.9582C528.622 14.508 529.67 16.5457 529.957 19.0713H522.337C522.194 18.2964 521.849 17.7081 521.304 17.3063C520.787 16.8757 520.084 16.6605 519.194 16.6605C518.506 16.6605 517.975 16.7896 517.602 17.0479C517.257 17.3063 517.085 17.665 517.085 18.1242C517.085 18.6982 517.415 19.1431 518.075 19.4588C518.735 19.7458 519.797 20.0471 521.261 20.3628C523.012 20.7359 524.461 21.1521 525.609 21.6113C526.786 22.0705 527.804 22.8167 528.665 23.8499C529.555 24.8544 530 26.232 530 27.9827C530 29.3891 529.584 30.6519 528.752 31.7712C527.948 32.8905 526.786 33.7802 525.264 34.4403C523.772 35.0717 522.007 35.3874 519.969 35.3874ZM38.0135 115.057L31.8573 139.208H22.3862L19.0283 124.571L15.5412 139.208H6.11316L1.47065e-06 115.057H8.39483L11.107 131.071L14.6802 115.057H23.7208L27.4231 131.114L30.0922 115.057H38.0135ZM44.6762 112.818C43.1838 112.818 41.9784 112.416 41.06 111.613C40.1703 110.78 39.7254 109.747 39.7254 108.513C39.7254 107.25 40.1703 106.203 41.06 105.37C41.9784 104.538 43.1838 104.122 44.6762 104.122C46.1399 104.122 47.3166 104.538 48.2063 105.37C49.1248 106.203 49.584 107.25 49.584 108.513C49.584 109.747 49.1248 110.78 48.2063 111.613C47.3166 112.416 46.1399 112.818 44.6762 112.818ZM48.8521 115.057V139.208H40.4142V115.057H48.8521ZM67.9069 132.019V139.208H64.2477C58.0771 139.208 54.9918 136.151 54.9918 130.038V122.074H52.0213V115.057H54.9918V109.202H63.4727V115.057H67.8639V122.074H63.4727V130.167C63.4727 130.827 63.6163 131.301 63.9033 131.588C64.219 131.875 64.7356 132.019 65.4531 132.019H67.9069ZM87.6627 114.841C90.4179 114.841 92.5991 115.774 94.2064 117.64C95.8423 119.476 96.6602 121.973 96.6602 125.13V139.208H88.2223V126.25C88.2223 124.872 87.8636 123.796 87.1461 123.021C86.4286 122.217 85.4671 121.816 84.2617 121.816C82.9989 121.816 82.0087 122.217 81.2912 123.021C80.5737 123.796 80.215 124.872 80.215 126.25V139.208H71.7771V107.351H80.215V118.501C80.9612 117.41 81.9657 116.535 83.2285 115.875C84.52 115.186 85.9981 114.841 87.6627 114.841ZM124.899 139.208L118.872 128.015H117.968V139.208H109.53V108.857H122.833C125.272 108.857 127.339 109.288 129.032 110.149C130.725 110.981 132.003 112.144 132.864 113.636C133.725 115.1 134.155 116.75 134.155 118.587C134.155 120.653 133.581 122.476 132.433 124.054C131.314 125.604 129.664 126.709 127.482 127.369L134.327 139.208H124.899ZM117.968 122.246H122.144C123.292 122.246 124.153 121.973 124.727 121.428C125.301 120.883 125.588 120.094 125.588 119.06C125.588 118.085 125.287 117.324 124.684 116.779C124.11 116.205 123.263 115.918 122.144 115.918H117.968V122.246ZM149.228 139.509C146.818 139.509 144.651 139.007 142.728 138.003C140.834 136.998 139.341 135.563 138.251 133.697C137.16 131.832 136.615 129.636 136.615 127.111C136.615 124.614 137.16 122.433 138.251 120.567C139.37 118.702 140.877 117.267 142.771 116.262C144.694 115.258 146.861 114.755 149.271 114.755C151.682 114.755 153.835 115.258 155.729 116.262C157.652 117.267 159.159 118.702 160.249 120.567C161.369 122.433 161.928 124.614 161.928 127.111C161.928 129.608 161.369 131.803 160.249 133.697C159.159 135.563 157.652 136.998 155.729 138.003C153.806 139.007 151.639 139.509 149.228 139.509ZM149.228 132.191C150.405 132.191 151.381 131.76 152.156 130.899C152.959 130.009 153.361 128.747 153.361 127.111C153.361 125.475 152.959 124.226 152.156 123.365C151.381 122.504 150.42 122.074 149.271 122.074C148.123 122.074 147.162 122.504 146.387 123.365C145.612 124.226 145.225 125.475 145.225 127.111C145.225 128.775 145.598 130.038 146.344 130.899C147.09 131.76 148.052 132.191 149.228 132.191ZM164.328 123.968C164.328 120.983 164.945 118.328 166.179 116.004C167.442 113.65 169.221 111.828 171.517 110.536C173.813 109.216 176.454 108.556 179.439 108.556C183.227 108.556 186.413 109.575 188.996 111.613C191.579 113.622 193.244 116.363 193.99 119.835H184.906C184.361 118.687 183.6 117.812 182.624 117.209C181.677 116.606 180.572 116.305 179.31 116.305C177.358 116.305 175.794 117.008 174.617 118.415C173.469 119.792 172.895 121.643 172.895 123.968C172.895 126.322 173.469 128.201 174.617 129.608C175.794 130.985 177.358 131.674 179.31 131.674C180.572 131.674 181.677 131.373 182.624 130.77C183.6 130.167 184.361 129.292 184.906 128.144H193.99C193.244 131.617 191.579 134.372 188.996 136.41C186.413 138.419 183.227 139.423 179.439 139.423C176.454 139.423 173.813 138.777 171.517 137.486C169.221 136.166 167.442 134.343 166.179 132.019C164.945 129.665 164.328 126.982 164.328 123.968ZM196.608 127.111C196.608 124.614 197.053 122.433 197.942 120.567C198.861 118.702 200.095 117.267 201.645 116.262C203.223 115.258 204.974 114.755 206.897 114.755C208.561 114.755 209.996 115.085 211.202 115.745C212.407 116.406 213.34 117.295 214 118.415V115.057H222.438V139.208H214V135.85C213.34 136.969 212.393 137.859 211.159 138.519C209.953 139.179 208.533 139.509 206.897 139.509C204.974 139.509 203.223 139.007 201.645 138.003C200.095 136.998 198.861 135.563 197.942 133.697C197.053 131.803 196.608 129.608 196.608 127.111ZM214 127.111C214 125.561 213.57 124.341 212.709 123.451C211.876 122.562 210.843 122.117 209.609 122.117C208.346 122.117 207.299 122.562 206.466 123.451C205.634 124.312 205.218 125.532 205.218 127.111C205.218 128.661 205.634 129.895 206.466 130.813C207.299 131.703 208.346 132.148 209.609 132.148C210.843 132.148 211.876 131.703 212.709 130.813C213.57 129.923 214 128.689 214 127.111ZM235.684 119.319C236.631 117.941 237.779 116.85 239.128 116.047C240.477 115.243 241.926 114.841 243.476 114.841V123.839H241.108C239.272 123.839 237.908 124.198 237.019 124.915C236.129 125.633 235.684 126.881 235.684 128.661V139.208H227.246V115.057H235.684V119.319ZM260.751 132.019V139.208H257.092C250.921 139.208 247.836 136.151 247.836 130.038V122.074H244.865V115.057H247.836V109.202H256.317V115.057H260.708V122.074H256.317V130.167C256.317 130.827 256.46 131.301 256.747 131.588C257.063 131.875 257.579 132.019 258.297 132.019H260.751ZM275.9 107.308L274.91 127.843H267.721L266.73 107.308H275.9ZM271.337 139.552C269.844 139.552 268.639 139.151 267.721 138.347C266.831 137.515 266.386 136.467 266.386 135.204C266.386 133.941 266.831 132.894 267.721 132.062C268.639 131.229 269.844 130.813 271.337 130.813C272.801 130.813 273.977 131.229 274.867 132.062C275.785 132.894 276.245 133.941 276.245 135.204C276.245 136.438 275.785 137.472 274.867 138.304C273.977 139.136 272.801 139.552 271.337 139.552Z" fill="white"/>
<path d="M22.9028 56.7965V63.5123H10.7626V68.8506H19.7171V75.2651H10.7626V87.147H2.32472V56.7965H22.9028ZM25.0789 75.0498C25.0789 72.5529 25.5237 70.3717 26.4134 68.5062C27.3318 66.6407 28.566 65.2056 30.1158 64.2011C31.6943 63.1966 33.445 62.6944 35.3679 62.6944C37.0325 62.6944 38.4675 63.0244 39.6729 63.6845C40.8784 64.3446 41.8111 65.2343 42.4712 66.3537V62.9957H50.9091V87.147H42.4712V83.7891C41.8111 84.9084 40.864 85.7981 39.6299 86.4582C38.4245 87.1183 37.0038 87.4483 35.3679 87.4483C33.445 87.4483 31.6943 86.9461 30.1158 85.9416C28.566 84.9371 27.3318 83.5021 26.4134 81.6365C25.5237 79.7423 25.0789 77.5468 25.0789 75.0498ZM42.4712 75.0498C42.4712 73.5 42.0407 72.2803 41.1797 71.3906C40.3474 70.5008 39.3142 70.056 38.0801 70.056C36.8173 70.056 35.7697 70.5008 34.9374 71.3906C34.1051 72.2516 33.6889 73.4713 33.6889 75.0498C33.6889 76.5996 34.1051 77.8338 34.9374 78.7522C35.7697 79.6419 36.8173 80.0867 38.0801 80.0867C39.3142 80.0867 40.3474 79.6419 41.1797 78.7522C42.0407 77.8625 42.4712 76.6283 42.4712 75.0498ZM66.0063 87.4483C63.8251 87.4483 61.8735 87.0896 60.1515 86.3721C58.4582 85.6259 57.1093 84.6214 56.1047 83.3586C55.1289 82.067 54.5836 80.6177 54.4688 79.0105H62.6484C62.7632 79.7854 63.122 80.3881 63.7247 80.8186C64.3274 81.2491 65.0736 81.4643 65.9633 81.4643C66.6521 81.4643 67.1974 81.3208 67.5992 81.0338C68.001 80.7468 68.2019 80.3737 68.2019 79.9145C68.2019 79.3118 67.8718 78.867 67.2117 78.58C66.5516 78.293 65.461 77.9773 63.9399 77.6329C62.2179 77.2885 60.7829 76.901 59.6349 76.4705C58.4869 76.04 57.4824 75.3368 56.6213 74.361C55.789 73.3852 55.3729 72.065 55.3729 70.4004C55.3729 68.9654 55.7603 67.6739 56.5352 66.5259C57.3102 65.3491 58.4438 64.4164 59.9362 63.7276C61.4573 63.0388 63.2798 62.6944 65.4036 62.6944C68.5607 62.6944 71.0432 63.4693 72.8513 65.0191C74.6595 66.5689 75.707 68.6066 75.994 71.1322H68.3741C68.2306 70.3573 67.8862 69.769 67.3409 69.3672C66.8243 68.9367 66.1211 68.7214 65.2314 68.7214C64.5426 68.7214 64.0117 68.8506 63.6386 69.1089C63.2942 69.3672 63.122 69.7259 63.122 70.1851C63.122 70.7591 63.452 71.204 64.1121 71.5197C64.7722 71.8067 65.8341 72.1081 67.2978 72.4238C69.0486 72.7969 70.4979 73.213 71.6459 73.6722C72.8226 74.1314 73.8415 74.8776 74.7025 75.9108C75.5922 76.9154 76.0371 78.293 76.0371 80.0437C76.0371 81.45 75.6209 82.7128 74.7886 83.8321C73.985 84.9514 72.8226 85.8411 71.3015 86.5012C69.8091 87.1326 68.0441 87.4483 66.0063 87.4483ZM94.4351 79.9576V87.147H90.7758C84.6052 87.147 81.5199 84.0904 81.5199 77.9773V70.0129H78.5495V62.9957H81.5199V57.1409H90.0009V62.9957H94.392V70.0129H90.0009V78.1064C90.0009 78.7665 90.1444 79.2401 90.4314 79.5271C90.7471 79.8141 91.2637 79.9576 91.9812 79.9576H94.4351ZM107.389 79.9145L102.782 92.4852H97.4442L99.6828 79.9145H107.389ZM131.534 87.4483C128.004 87.4483 125.105 86.616 122.838 84.9514C120.571 83.2581 119.351 80.8473 119.179 77.719H128.176C128.262 78.7809 128.578 79.5558 129.123 80.0437C129.669 80.5316 130.372 80.7755 131.233 80.7755C132.008 80.7755 132.639 80.589 133.127 80.2159C133.644 79.8141 133.902 79.2688 133.902 78.58C133.902 77.6903 133.486 77.0015 132.653 76.5135C131.821 76.0256 130.472 75.4803 128.607 74.8776C126.626 74.2175 125.019 73.5861 123.785 72.9834C122.58 72.352 121.518 71.448 120.599 70.2712C119.71 69.0658 119.265 67.5017 119.265 65.5787C119.265 63.6271 119.753 61.9625 120.728 60.5849C121.704 59.1786 123.053 58.1167 124.775 57.3992C126.497 56.6817 128.449 56.3229 130.63 56.3229C134.16 56.3229 136.973 57.1552 139.068 58.8198C141.192 60.4558 142.325 62.7661 142.469 65.751H133.299C133.27 64.8325 132.983 64.1437 132.438 63.6845C131.922 63.2253 131.247 62.9957 130.415 62.9957C129.783 62.9957 129.267 63.1823 128.865 63.5554C128.463 63.9285 128.262 64.4594 128.262 65.1482C128.262 65.7223 128.477 66.2245 128.908 66.655C129.367 67.0568 129.927 67.4156 130.587 67.7313C131.247 68.0183 132.223 68.3914 133.514 68.8506C135.437 69.5107 137.016 70.1708 138.25 70.8309C139.513 71.4623 140.589 72.3664 141.479 73.5431C142.397 74.6911 142.856 76.1548 142.856 77.9342C142.856 79.7423 142.397 81.3639 141.479 82.7989C140.589 84.2339 139.283 85.3676 137.561 86.1999C135.868 87.0322 133.859 87.4483 131.534 87.4483ZM145.401 75.0498C145.401 72.5529 145.846 70.3717 146.736 68.5062C147.654 66.6407 148.888 65.2056 150.438 64.2011C152.017 63.1966 153.767 62.6944 155.69 62.6944C157.355 62.6944 158.79 63.0244 159.995 63.6845C161.201 64.3446 162.134 65.2343 162.794 66.3537V62.9957H171.232V87.147H162.794V83.7891C162.134 84.9084 161.186 85.7981 159.952 86.4582C158.747 87.1183 157.326 87.4483 155.69 87.4483C153.767 87.4483 152.017 86.9461 150.438 85.9416C148.888 84.9371 147.654 83.5021 146.736 81.6365C145.846 79.7423 145.401 77.5468 145.401 75.0498ZM162.794 75.0498C162.794 73.5 162.363 72.2803 161.502 71.3906C160.67 70.5008 159.637 70.056 158.403 70.056C157.14 70.056 156.092 70.5008 155.26 71.3906C154.428 72.2516 154.011 73.4713 154.011 75.0498C154.011 76.5996 154.428 77.8338 155.26 78.7522C156.092 79.6419 157.14 80.0867 158.403 80.0867C159.637 80.0867 160.67 79.6419 161.502 78.7522C162.363 77.8625 162.794 76.6283 162.794 75.0498ZM189.084 70.0129H185.296V87.147H176.815V70.0129H174.189V62.9957H176.815V62.7805C176.815 59.6808 177.719 57.3131 179.527 55.6772C181.364 54.0125 183.99 53.1802 187.405 53.1802C188.094 53.1802 188.625 53.1946 188.998 53.2233V60.4127C188.768 60.384 188.453 60.3697 188.051 60.3697C187.132 60.3697 186.458 60.5849 186.027 61.0154C185.597 61.4172 185.353 62.0773 185.296 62.9957H189.084V70.0129ZM215.175 74.7915C215.175 75.4516 215.132 76.1117 215.045 76.7718H199.074C199.16 78.0921 199.519 79.0822 200.15 79.7423C200.81 80.3737 201.642 80.6894 202.647 80.6894C204.053 80.6894 205.058 80.058 205.66 78.7952H214.658C214.285 80.4598 213.553 81.9522 212.462 83.2725C211.4 84.564 210.052 85.5828 208.416 86.329C206.78 87.0752 204.972 87.4483 202.991 87.4483C200.609 87.4483 198.485 86.9461 196.62 85.9416C194.783 84.9371 193.334 83.5021 192.272 81.6365C191.239 79.771 190.722 77.5755 190.722 75.0498C190.722 72.5242 191.239 70.343 192.272 68.5062C193.305 66.6407 194.74 65.2056 196.577 64.2011C198.442 63.1966 200.58 62.6944 202.991 62.6944C205.373 62.6944 207.483 63.1823 209.32 64.1581C211.157 65.1339 212.592 66.5402 213.625 68.377C214.658 70.1851 215.175 72.3233 215.175 74.7915ZM206.564 72.6821C206.564 71.6489 206.22 70.8452 205.531 70.2712C204.842 69.6685 203.981 69.3672 202.948 69.3672C201.915 69.3672 201.068 69.6542 200.408 70.2282C199.748 70.7735 199.318 71.5915 199.117 72.6821H206.564ZM227.711 79.9145L223.105 92.4852H217.767L220.005 79.9145H227.711ZM239.028 75.0498C239.028 72.5529 239.472 70.3717 240.362 68.5062C241.28 66.6407 242.515 65.2056 244.064 64.2011C245.643 63.1966 247.394 62.6944 249.317 62.6944C250.981 62.6944 252.416 63.0244 253.622 63.6845C254.827 64.3446 255.76 65.2343 256.42 66.3537V62.9957H264.858V87.147H256.42V83.7891C255.76 84.9084 254.813 85.7981 253.579 86.4582C252.373 87.1183 250.952 87.4483 249.317 87.4483C247.394 87.4483 245.643 86.9461 244.064 85.9416C242.515 84.9371 241.28 83.5021 240.362 81.6365C239.472 79.7423 239.028 77.5468 239.028 75.0498ZM256.42 75.0498C256.42 73.5 255.989 72.2803 255.128 71.3906C254.296 70.5008 253.263 70.056 252.029 70.056C250.766 70.056 249.718 70.5008 248.886 71.3906C248.054 72.2516 247.638 73.4713 247.638 75.0498C247.638 76.5996 248.054 77.8338 248.886 78.7522C249.718 79.6419 250.766 80.0867 252.029 80.0867C253.263 80.0867 254.296 79.6419 255.128 78.7522C255.989 77.8625 256.42 76.6283 256.42 75.0498ZM285.465 62.7805C288.249 62.7805 290.459 63.7132 292.095 65.5787C293.731 67.4156 294.549 69.9125 294.549 73.0695V87.147H286.111V74.1888C286.111 72.8112 285.752 71.735 285.035 70.96C284.317 70.1564 283.356 69.7546 282.151 69.7546C280.888 69.7546 279.898 70.1564 279.18 70.96C278.463 71.735 278.104 72.8112 278.104 74.1888V87.147H269.666V62.9957H278.104V66.4398C278.85 65.3491 279.855 64.4738 281.117 63.8137C282.38 63.1249 283.83 62.7805 285.465 62.7805ZM297.801 75.0498C297.801 72.5529 298.246 70.3717 299.136 68.5062C300.054 66.6407 301.303 65.2056 302.881 64.2011C304.46 63.1966 306.211 62.6944 308.133 62.6944C309.683 62.6944 311.061 63.0244 312.266 63.6845C313.5 64.3159 314.462 65.1913 315.151 66.3106V55.2897H323.632V87.147H315.151V83.7891C314.491 84.9084 313.558 85.7981 312.352 86.4582C311.147 87.1183 309.726 87.4483 308.09 87.4483C306.168 87.4483 304.417 86.9461 302.838 85.9416C301.288 84.9371 300.054 83.5021 299.136 81.6365C298.246 79.7423 297.801 77.5468 297.801 75.0498ZM315.194 75.0498C315.194 73.5 314.763 72.2803 313.902 71.3906C313.07 70.5008 312.037 70.056 310.803 70.056C309.54 70.056 308.492 70.5008 307.66 71.3906C306.828 72.2516 306.411 73.4713 306.411 75.0498C306.411 76.5996 306.828 77.8338 307.66 78.7522C308.492 79.6419 309.54 80.0867 310.803 80.0867C312.037 80.0867 313.07 79.6419 313.902 78.7522C314.763 77.8625 315.194 76.6283 315.194 75.0498ZM345.118 63.5554V68.5062H354.804V74.9207H345.118V80.3881H356.096V87.147H336.68V56.7965H356.096V63.5554H345.118ZM358.888 75.0498C358.888 72.5529 359.332 70.3717 360.222 68.5062C361.14 66.6407 362.375 65.2056 363.924 64.2011C365.503 63.1966 367.254 62.6944 369.177 62.6944C370.841 62.6944 372.276 63.0244 373.482 63.6845C374.687 64.3446 375.62 65.2343 376.28 66.3537V62.9957H384.718V87.147H376.28V83.7891C375.62 84.9084 374.673 85.7981 373.439 86.4582C372.233 87.1183 370.812 87.4483 369.177 87.4483C367.254 87.4483 365.503 86.9461 363.924 85.9416C362.375 84.9371 361.14 83.5021 360.222 81.6365C359.332 79.7423 358.888 77.5468 358.888 75.0498ZM376.28 75.0498C376.28 73.5 375.849 72.2803 374.988 71.3906C374.156 70.5008 373.123 70.056 371.889 70.056C370.626 70.056 369.578 70.5008 368.746 71.3906C367.914 72.2516 367.498 73.4713 367.498 75.0498C367.498 76.5996 367.914 77.8338 368.746 78.7522C369.578 79.6419 370.626 80.0867 371.889 80.0867C373.123 80.0867 374.156 79.6419 374.988 78.7522C375.849 77.8625 376.28 76.6283 376.28 75.0498ZM399.815 87.4483C397.634 87.4483 395.682 87.0896 393.96 86.3721C392.267 85.6259 390.918 84.6214 389.913 83.3586C388.938 82.067 388.392 80.6177 388.277 79.0105H396.457C396.572 79.7854 396.931 80.3881 397.533 80.8186C398.136 81.2491 398.882 81.4643 399.772 81.4643C400.461 81.4643 401.006 81.3208 401.408 81.0338C401.81 80.7468 402.011 80.3737 402.011 79.9145C402.011 79.3118 401.681 78.867 401.02 78.58C400.36 78.293 399.27 77.9773 397.749 77.6329C396.027 77.2885 394.592 76.901 393.444 76.4705C392.296 76.04 391.291 75.3368 390.43 74.361C389.598 73.3852 389.182 72.065 389.182 70.4004C389.182 68.9654 389.569 67.6739 390.344 66.5259C391.119 65.3491 392.252 64.4164 393.745 63.7276C395.266 63.0388 397.088 62.6944 399.212 62.6944C402.369 62.6944 404.852 63.4693 406.66 65.0191C408.468 66.5689 409.516 68.6066 409.803 71.1322H402.183C402.039 70.3573 401.695 69.769 401.15 69.3672C400.633 68.9367 399.93 68.7214 399.04 68.7214C398.351 68.7214 397.82 68.8506 397.447 69.1089C397.103 69.3672 396.931 69.7259 396.931 70.1851C396.931 70.7591 397.261 71.204 397.921 71.5197C398.581 71.8067 399.643 72.1081 401.106 72.4238C402.857 72.7969 404.307 73.213 405.455 73.6722C406.631 74.1314 407.65 74.8776 408.511 75.9108C409.401 76.9154 409.846 78.293 409.846 80.0437C409.846 81.45 409.43 82.7128 408.597 83.8321C407.794 84.9514 406.631 85.8411 405.11 86.5012C403.618 87.1326 401.853 87.4483 399.815 87.4483ZM439.996 62.9957L424.671 98.6414H415.501L421.27 86.1138L411.368 62.9957H420.753L425.833 76.6857L430.741 62.9957H439.996Z" fill="url(#paint0_linear_1_51)"/>
<defs>
<linearGradient id="paint0_linear_1_51" x1="-0.0860993" y1="158.731" x2="1575.76" y2="158.731" gradientUnits="userSpaceOnUse">
<stop stop-color="#3DFF88"/>
<stop offset="1" stop-color="#D2FFE3"/>
</linearGradient>
</defs>
</svg>
