<svg width="1375" height="55" viewBox="0 0 1375 55" fill="none" xmlns="http://www.w3.org/2000/svg">
<g clip-path="url(#clip0_1_418)">
<path d="M1043.75 10.6667C1043.75 8.65017 1042.1 7 1040.09 7H989.564C987.55 7 985.906 8.65017 985.906 10.6667V39.1667C985.906 41.1832 987.55 42.8333 989.564 42.8333H1040.09C1042.1 42.8333 1043.75 41.1832 1043.75 39.1667V10.6667Z" fill="#006FCF"/>
<path d="M1019.58 37.4817V24.1484L1043.25 24.169V27.8519L1040.51 30.7842L1043.25 33.7403V37.5007H1038.88L1036.56 34.9325L1034.26 37.5102L1019.58 37.4785V37.4817Z" fill="white"/>
<path d="M1021.16 36.0187V25.6162H1029.96V28.0118H1024.01V29.6395H1029.82V31.9955H1024.01V33.5946H1029.96V36.0187H1021.16Z" fill="#006FCF"/>
<path d="M1029.92 36.0188L1034.79 30.8112L1029.92 25.6147H1033.69L1036.66 28.9128L1039.64 25.6163H1043.25V25.6971L1038.49 30.8112L1043.25 35.8732V36.0204H1039.61L1036.58 32.6907L1033.58 36.022H1029.92V36.0188Z" fill="#006FCF"/>
<path d="M1020.69 12.313H1026.39L1028.4 16.8746V12.313H1035.44L1036.65 15.7314L1037.87 12.313H1043.25V25.6462H1014.83L1020.69 12.313Z" fill="white"/>
<path d="M1021.77 13.7617L1017.16 24.1579H1020.32L1021.19 22.0758H1025.9L1026.76 24.1579H1030L1025.42 13.7617H1021.77ZM1022.16 19.742L1023.54 16.4328L1024.92 19.742H1022.16Z" fill="#006FCF"/>
<path d="M1029.96 24.1565V13.7588L1034.39 13.7746L1036.68 20.1665L1038.98 13.7604H1043.25V24.155L1040.5 24.1803V17.0395L1037.91 24.155H1035.39L1032.75 17.0157V24.1565H1029.96H1029.96Z" fill="#006FCF"/>
<path d="M1110.59 10.6667C1110.59 8.65017 1108.95 7 1106.93 7H1056.41C1054.39 7 1052.75 8.65017 1052.75 10.6667V39.1667C1052.75 41.1832 1054.39 42.8333 1056.41 42.8333H1106.93C1108.95 42.8333 1110.59 41.1832 1110.59 39.1667V10.6667Z" fill="white"/>
<path d="M1068.08 18.6917C1067.59 19.2659 1066.8 19.7188 1066.01 19.6541C1065.91 18.8777 1066.3 18.0528 1066.75 17.5433C1067.24 16.9529 1068.1 16.5324 1068.8 16.5C1068.88 17.3088 1068.56 18.1013 1068.08 18.6917ZM1068.79 19.8078C1067.65 19.7431 1066.68 20.4467 1066.14 20.4467C1065.59 20.4467 1064.76 19.8402 1063.85 19.8563C1062.68 19.8725 1061.59 20.5276 1060.99 21.5709C1059.76 23.6575 1060.67 26.7469 1061.86 28.4453C1062.44 29.2864 1063.14 30.2084 1064.06 30.176C1064.93 30.1437 1065.27 29.618 1066.32 29.618C1067.38 29.618 1067.69 30.176 1068.6 30.1598C1069.56 30.1437 1070.15 29.3187 1070.74 28.4776C1071.4 27.5233 1071.67 26.5932 1071.69 26.5447C1071.67 26.5285 1069.85 25.8411 1069.84 23.7707C1069.82 22.04 1071.27 21.215 1071.34 21.1665C1070.52 19.9696 1069.24 19.8402 1068.79 19.8078ZM1075.38 17.4624V30.0709H1077.37V25.7602H1080.11C1082.62 25.7602 1084.39 24.0618 1084.39 21.6032C1084.39 19.1446 1082.66 17.4624 1080.18 17.4624H1075.38ZM1077.37 19.1123H1079.65C1081.38 19.1123 1082.36 20.0181 1082.36 21.6113C1082.36 23.2046 1081.38 24.1185 1079.65 24.1185H1077.37V19.1123ZM1088.01 30.1679C1089.26 30.1679 1090.42 29.5452 1090.94 28.5585H1090.98V30.0709H1092.82V23.795C1092.82 21.9753 1091.34 20.8026 1089.07 20.8026C1086.96 20.8026 1085.4 21.9914 1085.35 23.6251H1087.14C1087.28 22.8487 1088.01 22.3392 1089.01 22.3392C1090.23 22.3392 1090.91 22.8972 1090.91 23.9244V24.6199L1088.43 24.7655C1086.13 24.903 1084.88 25.833 1084.88 27.4505C1084.88 29.0842 1086.17 30.1679 1088.01 30.1679ZM1088.55 28.6717C1087.49 28.6717 1086.82 28.1703 1086.82 27.402C1086.82 26.6094 1087.46 26.1484 1088.7 26.0756L1090.91 25.9382V26.6499C1090.91 27.8306 1089.89 28.6717 1088.55 28.6717ZM1095.27 33.5C1097.21 33.5 1098.12 32.7721 1098.92 30.5642L1102.4 20.9239H1100.38L1098.05 28.3725H1098L1095.67 20.9239H1093.59L1096.95 30.1032L1096.77 30.6613C1096.47 31.6075 1095.98 31.9715 1095.1 31.9715C1094.95 31.9715 1094.64 31.9553 1094.52 31.9391V33.4515C1094.63 33.4838 1095.13 33.5 1095.27 33.5Z" fill="black"/>
<path d="M1175.81 10.5909C1175.81 8.61833 1174.21 7 1172.24 7H1123.16C1121.19 7 1119.59 8.61833 1119.59 10.5909V38.4091C1119.59 40.3817 1121.19 42 1123.16 42H1172.24C1174.21 42 1175.81 40.3817 1175.81 38.4091V10.5909Z" fill="white"/>
<path d="M1136.96 24.4998V30.218C1136.96 30.6816 1136.66 30.6816 1136.2 30.5271C1133.28 29.2907 1131.6 25.4271 1132.67 22.1816C1133.28 20.4816 1134.51 19.0907 1136.2 18.4725C1136.81 18.1634 1136.96 18.318 1136.96 18.7816V24.4998ZM1140.03 24.4998V18.7816C1140.03 18.318 1140.03 18.318 1140.49 18.4725C1143.71 19.7089 1145.4 23.5725 1144.17 26.818C1143.56 28.518 1142.33 29.9089 1140.65 30.5271C1140.03 30.8361 1140.03 30.6816 1140.03 30.218V24.4998ZM1151.08 13.6816H1138.5C1144.33 13.6816 1148.93 18.4725 1148.93 24.4998C1148.93 30.5271 1144.33 35.318 1138.5 35.318H1151.08C1156.9 35.318 1161.51 30.5271 1161.51 24.4998C1161.51 18.4725 1156.9 13.6816 1151.08 13.6816Z" fill="#3086C8"/>
<path d="M1241.62 10.5908C1241.62 8.61326 1239.99 7 1238.01 7H1188.41C1186.43 7 1184.81 8.61326 1184.81 10.5908V38.4079C1184.81 40.3855 1186.43 41.9987 1188.41 41.9987H1238.01C1239.99 41.9987 1241.62 40.3855 1241.62 38.4079V10.5908Z" fill="white"/>
<path d="M1189.29 17.0195H1186.86V25.5192H1189.29C1190.58 25.5192 1191.51 25.2101 1192.33 24.5456C1193.31 23.7419 1193.88 22.5365 1193.88 21.2848C1193.87 18.7658 1191.99 17.0195 1189.29 17.0195ZM1191.25 23.4174C1190.72 23.881 1190.05 24.0974 1188.97 24.0974H1188.52V18.4721H1188.97C1190.04 18.4721 1190.69 18.6576 1191.25 19.1521C1191.82 19.6621 1192.16 20.4503 1192.16 21.2693C1192.16 22.0884 1191.82 22.9074 1191.25 23.4174ZM1194.64 17.0195H1196.3V25.5192H1194.64V17.0195ZM1200.36 20.2803C1199.37 19.9094 1199.08 19.6621 1199.08 19.2139C1199.08 18.673 1199.6 18.2712 1200.32 18.2712C1200.81 18.2712 1201.23 18.4721 1201.65 18.9667L1202.52 17.8385C1201.8 17.2204 1200.95 16.8958 1200.01 16.8958C1198.5 16.8958 1197.34 17.9467 1197.34 19.3376C1197.34 20.5121 1197.88 21.1148 1199.43 21.6711C1200.08 21.9029 1200.41 22.0575 1200.58 22.1502C1200.9 22.3665 1201.07 22.6756 1201.07 23.0311C1201.07 23.7265 1200.53 24.2365 1199.79 24.2365C1199 24.2365 1198.36 23.8347 1197.97 23.1083L1196.9 24.1438C1197.66 25.2719 1198.59 25.7664 1199.85 25.7664C1201.57 25.7664 1202.8 24.6228 1202.8 22.9693C1202.83 21.5938 1202.25 20.9757 1200.36 20.2803ZM1203.34 21.2848C1203.34 23.7883 1205.31 25.7201 1207.83 25.7201C1208.55 25.7201 1209.17 25.581 1209.91 25.2255V23.2783C1209.24 23.9428 1208.66 24.2056 1207.91 24.2056C1206.24 24.2056 1205.04 23.0002 1205.04 21.2693C1205.04 19.6312 1206.27 18.3485 1207.83 18.3485C1208.62 18.3485 1209.23 18.6267 1209.91 19.3067V17.3595C1209.18 16.9886 1208.58 16.834 1207.86 16.834C1205.37 16.834 1203.34 18.8121 1203.34 21.2848ZM1223.12 22.7374L1220.84 17.0195H1219.03L1222.64 25.7355H1223.54L1227.21 17.0195H1225.41L1223.12 22.7374ZM1227.97 25.5192H1232.68V24.0819H1229.63V21.7947H1232.57V20.3575H1229.63V18.4721H1232.68V17.0195H1227.97V25.5192ZM1239.27 19.5385C1239.27 17.9467 1238.17 17.0349 1236.25 17.0349H1233.78V25.5346H1235.44V22.1193H1235.66L1237.95 25.5346H1240L1237.32 21.9493C1238.57 21.6866 1239.27 20.8366 1239.27 19.5385ZM1235.92 20.9448H1235.44V18.364H1235.95C1236.99 18.364 1237.55 18.7967 1237.55 19.6312C1237.55 20.4812 1236.99 20.9448 1235.92 20.9448Z" fill="#231F20"/>
<path d="M1215.01 25.8296C1216.22 25.8296 1217.37 25.3524 1218.22 24.5029C1219.08 23.6534 1219.55 22.5013 1219.55 21.3C1219.55 20.0987 1219.08 18.9466 1218.22 18.0971C1217.37 17.2477 1216.22 16.7705 1215.01 16.7705C1213.81 16.7705 1212.65 17.2477 1211.8 18.0971C1210.95 18.9466 1210.47 20.0987 1210.47 21.3C1210.47 22.5013 1210.95 23.6534 1211.8 24.5029C1212.65 25.3524 1213.81 25.8296 1215.01 25.8296Z" fill="url(#paint0_linear_1_418)"/>
<path opacity="0.65" d="M1215.01 25.8296C1216.22 25.8296 1217.37 25.3524 1218.22 24.5029C1219.08 23.6534 1219.55 22.5013 1219.55 21.3C1219.55 20.0987 1219.08 18.9466 1218.22 18.0971C1217.37 17.2477 1216.22 16.7705 1215.01 16.7705C1213.81 16.7705 1212.65 17.2477 1211.8 18.0971C1210.95 18.9466 1210.47 20.0987 1210.47 21.3C1210.47 22.5013 1210.95 23.6534 1211.8 24.5029C1212.65 25.3524 1213.81 25.8296 1215.01 25.8296Z" fill="url(#paint1_linear_1_418)"/>
<path d="M1240.45 17.556C1240.45 17.4015 1240.34 17.3242 1240.17 17.3242H1239.92V18.066H1240.11V17.7724L1240.32 18.066H1240.54L1240.29 17.7569C1240.39 17.7415 1240.45 17.6642 1240.45 17.556ZM1240.14 17.6642H1240.11V17.4633H1240.14C1240.23 17.4633 1240.28 17.4942 1240.28 17.556C1240.28 17.6333 1240.23 17.6642 1240.14 17.6642Z" fill="#231F20"/>
<path d="M1240.2 17.0454C1239.84 17.0454 1239.55 17.339 1239.55 17.6944C1239.55 18.0499 1239.84 18.3435 1240.2 18.3435C1240.56 18.3435 1240.85 18.0499 1240.85 17.6944C1240.85 17.339 1240.56 17.0454 1240.2 17.0454ZM1240.2 18.2353C1239.92 18.2353 1239.67 18.0035 1239.67 17.6944C1239.67 17.4008 1239.91 17.1535 1240.2 17.1535C1240.48 17.1535 1240.71 17.4008 1240.71 17.6944C1240.71 17.9881 1240.48 18.2353 1240.2 18.2353Z" fill="#231F20"/>
<path d="M1241.11 26.021C1241.11 26.021 1225.75 36.6673 1197.67 41.4997H1238.01C1238.83 41.4998 1239.61 41.1775 1240.19 40.6032C1240.77 40.0289 1241.1 39.2491 1241.11 38.4337L1241.15 33.7666L1241.11 26.021Z" fill="#F48120"/>
<path d="M1307.46 10.5909C1307.46 8.61331 1305.84 7 1303.86 7H1254.25C1252.27 7 1250.65 8.61331 1250.65 10.5909V38.4091C1250.65 40.3867 1252.27 42 1254.25 42H1303.86C1305.84 42 1307.46 40.3867 1307.46 38.4091V10.5909Z" fill="white"/>
<path d="M1272.85 35.3175C1278.84 35.3175 1283.7 30.4741 1283.7 24.4993C1283.7 18.5246 1278.84 13.6812 1272.85 13.6812C1266.86 13.6812 1262 18.5246 1262 24.4993C1262 30.4741 1266.86 35.3175 1272.85 35.3175Z" fill="#EB001B"/>
<path d="M1285.25 35.3175C1291.25 35.3175 1296.11 30.4741 1296.11 24.4993C1296.11 18.5246 1291.25 13.6812 1285.25 13.6812C1279.26 13.6812 1274.4 18.5246 1274.4 24.4993C1274.4 30.4741 1279.26 35.3175 1285.25 35.3175Z" fill="#F79E1B"/>
<path d="M1283.7 24.4995C1283.7 20.7904 1281.84 17.545 1279.05 15.6904C1276.26 17.6995 1274.4 20.945 1274.4 24.4995C1274.4 28.0541 1276.26 31.4541 1279.05 33.3086C1281.84 31.4541 1283.7 28.2086 1283.7 24.4995Z" fill="#FF5F00"/>
<path d="M1373.27 10.5909C1373.27 8.61331 1371.65 7 1369.67 7H1320.06C1318.08 7 1316.46 8.61331 1316.46 10.5909V38.4091C1316.46 40.3867 1318.08 42 1320.06 42H1369.67C1371.65 42 1373.27 40.3867 1373.27 38.4091V10.5909Z" fill="white"/>
<path d="M1359.28 21.5628H1358.81C1358.19 23.1083 1357.73 23.881 1357.26 26.1992H1360.21C1359.74 23.881 1359.74 22.7992 1359.28 21.5628ZM1363.77 30.681H1361.14C1360.98 30.681 1360.98 30.681 1360.83 30.5265L1360.52 29.1356L1360.36 28.8265H1356.64C1356.49 28.8265 1356.33 28.8265 1356.33 29.1356L1355.87 30.5265C1355.87 30.681 1355.71 30.681 1355.71 30.681H1352.46L1352.77 29.9083L1357.26 19.3992C1357.26 18.6265 1357.73 18.3174 1358.5 18.3174H1360.83C1360.98 18.3174 1361.14 18.3174 1361.14 18.6265L1363.31 28.6719C1363.46 29.2901 1363.62 29.7537 1363.62 30.3719C1363.77 30.5265 1363.77 30.5265 1363.77 30.681ZM1343 30.2174L1343.62 27.4356C1343.78 27.4356 1343.93 27.5901 1343.93 27.5901C1345.02 28.0537 1346.1 28.3628 1347.19 28.2083C1347.5 28.2083 1347.96 28.0537 1348.27 27.8992C1349.05 27.5901 1349.05 26.8174 1348.43 26.1992C1348.12 25.8901 1347.65 25.7356 1347.19 25.4265C1346.57 25.1174 1345.95 24.8083 1345.48 24.3447C1343.62 22.7992 1344.24 20.6356 1345.33 19.5537C1346.26 18.9356 1346.72 18.3174 1347.96 18.3174C1349.82 18.3174 1351.84 18.3174 1352.77 18.6265H1352.92C1352.77 19.5537 1352.61 20.3265 1352.3 21.2537C1351.53 20.9447 1350.75 20.6356 1349.98 20.6356C1349.51 20.6356 1349.05 20.6356 1348.58 20.7901C1348.27 20.7901 1348.12 20.9447 1347.96 21.0992C1347.65 21.4083 1347.65 21.8719 1347.96 22.181L1348.74 22.7992C1349.36 23.1083 1349.98 23.4174 1350.44 23.7265C1351.22 24.1901 1351.99 24.9628 1352.15 25.8901C1352.46 27.281 1351.99 28.5174 1350.75 29.4447C1349.98 30.0628 1349.67 30.3719 1348.58 30.3719C1346.41 30.3719 1344.71 30.5265 1343.31 30.0628C1343.16 30.3719 1343.16 30.3719 1343 30.2174ZM1337.58 30.681C1337.73 29.5992 1337.73 29.5992 1337.89 29.1356C1338.66 25.7356 1339.44 22.181 1340.06 18.781C1340.21 18.4719 1340.21 18.3174 1340.52 18.3174H1343.31C1343 20.1719 1342.69 21.5628 1342.23 23.2628C1341.76 25.581 1341.3 27.8992 1340.68 30.2174C1340.68 30.5265 1340.52 30.5265 1340.21 30.5265M1323.16 18.6265C1323.16 18.4719 1323.47 18.3174 1323.62 18.3174H1328.89C1329.67 18.3174 1330.29 18.781 1330.44 19.5537L1331.84 26.3537C1331.84 26.5083 1331.84 26.5083 1331.99 26.6628C1331.99 26.5083 1332.15 26.5083 1332.15 26.5083L1335.41 18.6265C1335.25 18.4719 1335.41 18.3174 1335.56 18.3174H1338.82C1338.82 18.4719 1338.82 18.4719 1338.66 18.6265L1333.86 29.9083C1333.7 30.2174 1333.7 30.3719 1333.55 30.5265C1333.39 30.681 1333.08 30.5265 1332.77 30.5265H1330.44C1330.29 30.5265 1330.13 30.5265 1330.13 30.2174L1327.65 20.6356C1327.34 20.3265 1326.88 19.8628 1326.26 19.7083C1325.33 19.2447 1323.62 18.9356 1323.31 18.9356L1323.16 18.6265Z" fill="#142688"/>
</g>
<defs>
<linearGradient id="paint0_linear_1_418" x1="1217.33" y1="24.9255" x2="1214.21" y2="20.0163" gradientUnits="userSpaceOnUse">
<stop stop-color="#F89F20"/>
<stop offset="0.25" stop-color="#F79A20"/>
<stop offset="0.533" stop-color="#F68D20"/>
<stop offset="0.62" stop-color="#F58720"/>
<stop offset="0.723" stop-color="#F48120"/>
<stop offset="1" stop-color="#F37521"/>
</linearGradient>
<linearGradient id="paint1_linear_1_418" x1="1216.84" y1="24.8591" x2="1212.27" y2="15.906" gradientUnits="userSpaceOnUse">
<stop stop-color="#F58720"/>
<stop offset="0.359" stop-color="#E16F27"/>
<stop offset="0.703" stop-color="#D4602C"/>
<stop offset="0.982" stop-color="#D05B2E"/>
</linearGradient>
<clipPath id="clip0_1_418">
<rect width="389" height="37" fill="white" transform="translate(985.406 6.5)"/>
</clipPath>
</defs>
</svg>
