<svg width="371" height="30" viewBox="0 0 371 30" fill="none" xmlns="http://www.w3.org/2000/svg">
<path d="M24.3784 1.52374V29.6711H17.522V18.0834H6.85643V29.6711H1.96868e-05V1.52374H6.85643V12.5501H17.522V1.52374H24.3784ZM39.5124 29.9919C37.3205 29.9919 35.3424 29.5241 33.5782 28.5885C31.8407 27.6529 30.4641 26.3164 29.4483 24.5789C28.4593 22.8414 27.9648 20.8099 27.9648 18.4843C27.9648 16.1855 28.4726 14.1673 29.4884 12.4298C30.5042 10.6656 31.8942 9.31572 33.6584 8.38015C35.4226 7.44458 37.4007 6.97679 39.5926 6.97679C41.7845 6.97679 43.7626 7.44458 45.5268 8.38015C47.291 9.31572 48.681 10.6656 49.6968 12.4298C50.7125 14.1673 51.2204 16.1855 51.2204 18.4843C51.2204 20.7832 50.6992 22.8147 49.6567 24.5789C48.6409 26.3164 47.2375 27.6529 45.4466 28.5885C43.6824 29.5241 41.7043 29.9919 39.5124 29.9919ZM39.5124 24.0577C40.8222 24.0577 41.9315 23.5765 42.8404 22.6142C43.7759 21.6519 44.2437 20.2753 44.2437 18.4843C44.2437 16.6934 43.7893 15.3168 42.8804 14.3544C41.9983 13.3921 40.9024 12.911 39.5926 12.911C38.256 12.911 37.1467 13.3921 36.2646 14.3544C35.3825 15.29 34.9414 16.6666 34.9414 18.4843C34.9414 20.2753 35.3691 21.6519 36.2245 22.6142C37.1066 23.5765 38.2026 24.0577 39.5124 24.0577ZM86.9747 7.29756L80.9202 29.6711H73.3421L69.8137 15.1564L66.1649 29.6711H58.6269L52.5323 7.29756H59.3887L62.5563 23.2958L66.3253 7.29756H73.5827L77.3918 23.2157L80.5193 7.29756H86.9747ZM281.932 1.52374L274.594 29.6711H266.294L261.804 11.1468L257.153 29.6711H248.853L241.716 1.52374H249.053L253.103 22.0128L258.115 1.52374H265.653L270.464 22.0128L274.554 1.52374H281.932ZM295.555 29.9919C293.363 29.9919 291.385 29.5241 289.621 28.5885C287.883 27.6529 286.506 26.3164 285.491 24.5789C284.502 22.8414 284.007 20.8099 284.007 18.4843C284.007 16.1855 284.515 14.1673 285.531 12.4298C286.547 10.6656 287.937 9.31572 289.701 8.38015C291.465 7.44458 293.443 6.97679 295.635 6.97679C297.827 6.97679 299.805 7.44458 301.569 8.38015C303.333 9.31572 304.723 10.6656 305.739 12.4298C306.755 14.1673 307.263 16.1855 307.263 18.4843C307.263 20.7832 306.742 22.8147 305.699 24.5789C304.683 26.3164 303.28 27.6529 301.489 28.5885C299.725 29.5241 297.747 29.9919 295.555 29.9919ZM295.555 24.0577C296.865 24.0577 297.974 23.5765 298.883 22.6142C299.818 21.6519 300.286 20.2753 300.286 18.4843C300.286 16.6934 299.832 15.3168 298.923 14.3544C298.041 13.3921 296.945 12.911 295.635 12.911C294.298 12.911 293.189 13.3921 292.307 14.3544C291.425 15.29 290.984 16.6666 290.984 18.4843C290.984 20.2753 291.412 21.6519 292.267 22.6142C293.149 23.5765 294.245 24.0577 295.555 24.0577ZM317.757 11.0265C318.559 9.79687 319.561 8.83457 320.764 8.13958C321.967 7.41785 323.303 7.05698 324.773 7.05698V14.3144H322.889C321.178 14.3144 319.895 14.6886 319.04 15.437C318.184 16.1588 317.757 17.4418 317.757 19.2863V29.6711H310.9V7.29756H317.757V11.0265ZM341.723 29.6711L334.907 20.2886V29.6711H328.051V9.75081e-05H334.907V16.3993L341.683 7.29756H350.144L340.841 18.5244L350.224 29.6711H341.723ZM361.938 29.9919C359.987 29.9919 358.25 29.6577 356.726 28.9895C355.202 28.3212 353.999 27.4124 353.117 26.2629C352.235 25.0868 351.741 23.777 351.634 22.3335H358.41C358.49 23.1087 358.851 23.7369 359.492 24.2181C360.134 24.6992 360.923 24.9398 361.858 24.9398C362.714 24.9398 363.368 24.7794 363.823 24.4586C364.304 24.1111 364.545 23.6701 364.545 23.1355C364.545 22.4939 364.21 22.0261 363.542 21.7321C362.874 21.4113 361.791 21.0638 360.294 20.6896C358.691 20.3154 357.354 19.9278 356.285 19.5268C355.216 19.0991 354.293 18.4442 353.518 17.5621C352.743 16.6533 352.355 15.437 352.355 13.9134C352.355 12.6303 352.703 11.4675 353.398 10.425C354.12 9.35582 355.162 8.5138 356.525 7.899C357.915 7.28419 359.559 6.97679 361.457 6.97679C364.264 6.97679 366.469 7.67179 368.073 9.06178C369.704 10.4518 370.639 12.2962 370.88 14.595H364.545C364.438 13.8198 364.09 13.205 363.502 12.7506C362.941 12.2962 362.192 12.069 361.257 12.069C360.455 12.069 359.84 12.2294 359.412 12.5501C358.985 12.8442 358.771 13.2585 358.771 13.7931C358.771 14.4346 359.105 14.9158 359.773 15.2366C360.468 15.5573 361.537 15.8781 362.981 16.1989C364.638 16.6266 365.988 17.0542 367.031 17.4819C368.073 17.8829 368.982 18.5512 369.757 19.4867C370.559 20.3956 370.973 21.6252 371 23.1756C371 24.4854 370.626 25.6615 369.877 26.704C369.156 27.7198 368.1 28.5217 366.71 29.1098C365.346 29.6978 363.756 29.9919 361.938 29.9919Z" fill="white"/>
<path d="M112.441 29.6711L106.587 19.0457H104.943V29.6711H98.0863V1.52374H109.594C111.812 1.52374 113.697 1.91134 115.247 2.68653C116.824 3.46171 118.001 4.53094 118.776 5.8942C119.551 7.23073 119.939 8.72765 119.939 10.3849C119.939 12.2561 119.404 13.9268 118.335 15.3969C117.292 16.8671 115.742 17.9096 113.684 18.5244L120.179 29.6711H112.441ZM104.943 14.1941H109.193C110.449 14.1941 111.385 13.8867 112 13.2719C112.641 12.6571 112.962 11.7883 112.962 10.6656C112.962 9.5964 112.641 8.75438 112 8.13958C111.385 7.52477 110.449 7.21737 109.193 7.21737H104.943V14.1941ZM134.427 29.9919C132.235 29.9919 130.257 29.5241 128.493 28.5885C126.755 27.6529 125.379 26.3164 124.363 24.5789C123.374 22.8414 122.879 20.8099 122.879 18.4843C122.879 16.1855 123.387 14.1673 124.403 12.4298C125.419 10.6656 126.809 9.31572 128.573 8.38015C130.337 7.44458 132.315 6.97679 134.507 6.97679C136.699 6.97679 138.677 7.44458 140.441 8.38015C142.206 9.31572 143.596 10.6656 144.611 12.4298C145.627 14.1673 146.135 16.1855 146.135 18.4843C146.135 20.7832 145.614 22.8147 144.571 24.5789C143.556 26.3164 142.152 27.6529 140.361 28.5885C138.597 29.5241 136.619 29.9919 134.427 29.9919ZM134.427 24.0577C135.737 24.0577 136.846 23.5765 137.755 22.6142C138.691 21.6519 139.158 20.2753 139.158 18.4843C139.158 16.6934 138.704 15.3168 137.795 14.3544C136.913 13.3921 135.817 12.911 134.507 12.911C133.171 12.911 132.061 13.3921 131.179 14.3544C130.297 15.29 129.856 16.6666 129.856 18.4843C129.856 20.2753 130.284 21.6519 131.139 22.6142C132.021 23.5765 133.117 24.0577 134.427 24.0577ZM148.409 18.4843C148.409 16.1588 148.877 14.1272 149.813 12.3897C150.775 10.6523 152.098 9.31572 153.782 8.38015C155.493 7.44458 157.444 6.97679 159.636 6.97679C162.443 6.97679 164.782 7.71188 166.653 9.18207C168.551 10.6523 169.794 12.7239 170.382 15.3969H163.084C162.47 13.6862 161.28 12.8308 159.516 12.8308C158.259 12.8308 157.257 13.3253 156.509 14.3144C155.76 15.2767 155.386 16.6666 155.386 18.4843C155.386 20.302 155.76 21.7054 156.509 22.6944C157.257 23.6567 158.259 24.1379 159.516 24.1379C161.28 24.1379 162.47 23.2825 163.084 21.5717H170.382C169.794 24.1913 168.551 26.2496 166.653 27.7465C164.755 29.2434 162.416 29.9919 159.636 29.9919C157.444 29.9919 155.493 29.5241 153.782 28.5885C152.098 27.6529 150.775 26.3164 149.813 24.5789C148.877 22.8414 148.409 20.8099 148.409 18.4843ZM172.686 18.4442C172.686 16.1454 173.114 14.1272 173.969 12.3897C174.851 10.6523 176.041 9.31572 177.538 8.38015C179.035 7.44458 180.705 6.97679 182.55 6.97679C184.127 6.97679 185.503 7.29756 186.68 7.93909C187.882 8.58063 188.805 9.42265 189.446 10.4651V7.29756H196.303V29.6711H189.446V26.5035C188.778 27.546 187.842 28.388 186.639 29.0296C185.463 29.6711 184.087 29.9919 182.51 29.9919C180.692 29.9919 179.035 29.5241 177.538 28.5885C176.041 27.6262 174.851 26.2763 173.969 24.5388C173.114 22.7746 172.686 20.7431 172.686 18.4442ZM189.446 18.4843C189.446 16.7736 188.965 15.4237 188.003 14.4346C187.067 13.4456 185.918 12.9511 184.554 12.9511C183.191 12.9511 182.028 13.4456 181.066 14.4346C180.131 15.3969 179.663 16.7335 179.663 18.4442C179.663 20.155 180.131 21.5183 181.066 22.534C182.028 23.5231 183.191 24.0176 184.554 24.0176C185.918 24.0176 187.067 23.5231 188.003 22.534C188.965 21.545 189.446 20.1951 189.446 18.4843ZM208.119 11.0265C208.921 9.79687 209.924 8.83457 211.127 8.13958C212.329 7.41785 213.666 7.05698 215.136 7.05698V14.3144H213.252C211.541 14.3144 210.258 14.6886 209.402 15.437C208.547 16.1588 208.119 17.4418 208.119 19.2863V29.6711H201.263V7.29756H208.119V11.0265ZM230.883 23.8572V29.6711H227.395C224.909 29.6711 222.971 29.0697 221.581 27.8668C220.191 26.6372 219.496 24.6457 219.496 21.8925V12.9912H216.769V7.29756H219.496V1.84451H226.352V7.29756H230.843V12.9912H226.352V21.9727C226.352 22.6409 226.513 23.1221 226.833 23.4161C227.154 23.7102 227.689 23.8572 228.437 23.8572H230.883Z" fill="url(#paint0_linear_1_173)"/>
<defs>
<linearGradient id="paint0_linear_1_173" x1="-2.48593" y1="56.2347" x2="827.5" y2="56.2347" gradientUnits="userSpaceOnUse">
<stop stop-color="#3DFF88"/>
<stop offset="1" stop-color="#80FFB1"/>
</linearGradient>
</defs>
</svg>
