<svg width="760" height="43" viewBox="0 0 760 43" fill="none" xmlns="http://www.w3.org/2000/svg">
<path d="M21.7381 3.96334V9.44791H14.2919V32.0668H7.44621V9.44791H9.24643e-07V3.96334H21.7381ZM32.0195 13.4512C32.8202 12.2236 33.821 11.2628 35.022 10.5688C36.223 9.84825 37.5575 9.48795 39.0253 9.48795V16.734H37.1438C35.4357 16.734 34.1546 17.1076 33.3006 17.8549C32.4465 18.5755 32.0195 19.8566 32.0195 21.6981V32.0668H25.1738V9.72815H32.0195V13.4512ZM64.3558 9.72815V32.0668H57.5101V29.0242C56.8162 30.0117 55.8688 30.8124 54.6678 31.4262C53.4934 32.0134 52.1857 32.307 50.7445 32.307C49.0364 32.307 47.5285 31.9333 46.2207 31.186C44.913 30.4121 43.8988 29.3045 43.1782 27.8633C42.4576 26.4221 42.0973 24.7273 42.0973 22.779V9.72815H48.903V21.8583C48.903 23.3528 49.2899 24.5138 50.0639 25.3412C50.8379 26.1685 51.8788 26.5822 53.1865 26.5822C54.521 26.5822 55.5752 26.1685 56.3492 25.3412C57.1231 24.5138 57.5101 23.3528 57.5101 21.8583V9.72815H64.3558ZM78.3606 32.387C76.4123 32.387 74.6776 32.0534 73.1563 31.3862C71.635 30.719 70.434 29.8116 69.5533 28.6639C68.6726 27.4896 68.1788 26.1819 68.0721 24.7407H74.8377C74.9178 25.5146 75.2781 26.1418 75.9186 26.6222C76.5591 27.1026 77.3465 27.3428 78.2806 27.3428C79.1346 27.3428 79.7885 27.1827 80.2422 26.8624C80.7226 26.5155 80.9628 26.0751 80.9628 25.5413C80.9628 24.9008 80.6292 24.4337 79.962 24.1402C79.2947 23.8199 78.2138 23.4729 76.7193 23.0993C75.1179 22.7256 73.7835 22.3387 72.7159 21.9383C71.6484 21.5113 70.7276 20.8574 69.9536 19.9767C69.1796 19.0693 68.7927 17.8549 68.7927 16.3337C68.7927 15.0526 69.1396 13.8916 69.8335 12.8507C70.5541 11.7832 71.595 10.9425 72.9561 10.3286C74.3439 9.7148 75.9853 9.40788 77.8802 9.40788C80.6826 9.40788 82.8844 10.1018 84.4857 11.4896C86.1138 12.8774 87.0479 14.719 87.2881 17.0142H80.9628C80.856 16.2402 80.5091 15.6264 79.9219 15.1727C79.3615 14.719 78.6142 14.4921 77.6801 14.4921C76.8794 14.4921 76.2656 14.6523 75.8385 14.9725C75.4115 15.2661 75.198 15.6798 75.198 16.2136C75.198 16.8541 75.5316 17.3345 76.1988 17.6548C76.8927 17.975 77.9603 18.2953 79.4015 18.6156C81.0562 19.0426 82.404 19.4696 83.4449 19.8966C84.4857 20.297 85.3932 20.9642 86.1671 21.8983C86.9678 22.8057 87.3815 24.0334 87.4082 25.5814C87.4082 26.8891 87.0345 28.0634 86.2872 29.1043C85.5666 30.1185 84.5124 30.9191 83.1246 31.5063C81.7635 32.0935 80.1755 32.387 78.3606 32.387ZM104.047 26.2619V32.0668H100.564C98.0818 32.0668 96.1468 31.4663 94.759 30.2653C93.3712 29.0376 92.6773 27.0493 92.6773 24.3003V15.4129H89.955V9.72815H92.6773V4.28361H99.523V9.72815H104.007V15.4129H99.523V24.3804C99.523 25.0476 99.6831 25.528 100.003 25.8216C100.324 26.1151 100.857 26.2619 101.605 26.2619H104.047ZM128.917 20.5372C128.917 21.1777 128.877 21.8449 128.797 22.5388H113.304C113.411 23.9266 113.852 24.9942 114.626 25.7415C115.426 26.4621 116.4 26.8224 117.548 26.8224C119.256 26.8224 120.444 26.1018 121.111 24.6606H128.397C128.023 26.1285 127.343 27.4496 126.355 28.6239C125.395 29.7982 124.18 30.719 122.712 31.3862C121.244 32.0534 119.603 32.387 117.788 32.387C115.6 32.387 113.651 31.92 111.943 30.9859C110.235 30.0518 108.901 28.7173 107.94 26.9825C106.979 25.2478 106.499 23.2194 106.499 20.8975C106.499 18.5755 106.966 16.5472 107.9 14.8124C108.861 13.0776 110.195 11.7432 111.903 10.809C113.611 9.87494 115.573 9.40788 117.788 9.40788C119.95 9.40788 121.872 9.86159 123.553 10.769C125.234 11.6764 126.542 12.9708 127.476 14.6523C128.437 16.3337 128.917 18.2953 128.917 20.5372ZM121.912 18.7357C121.912 17.5613 121.511 16.6272 120.711 15.9333C119.91 15.2394 118.909 14.8925 117.708 14.8925C116.56 14.8925 115.586 15.2261 114.786 15.8933C114.012 16.5605 113.531 17.508 113.344 18.7357H121.912ZM131.168 20.8574C131.168 18.5622 131.595 16.5472 132.449 14.8124C133.33 13.0776 134.517 11.7432 136.012 10.809C137.506 9.87494 139.174 9.40788 141.016 9.40788C142.484 9.40788 143.818 9.7148 145.019 10.3286C146.247 10.9425 147.208 11.7698 147.902 12.8107V2.44207H154.747V32.0668H147.902V28.8641C147.261 29.9317 146.34 30.7857 145.139 31.4262C143.965 32.0668 142.591 32.387 141.016 32.387C139.174 32.387 137.506 31.92 136.012 30.9859C134.517 30.0251 133.33 28.6773 132.449 26.9425C131.595 25.181 131.168 23.1527 131.168 20.8574ZM147.902 20.8975C147.902 19.1894 147.421 17.8416 146.461 16.8541C145.526 15.8666 144.379 15.3729 143.018 15.3729C141.657 15.3729 140.496 15.8666 139.535 16.8541C138.601 17.8149 138.134 19.1493 138.134 20.8574C138.134 22.5655 138.601 23.9266 139.535 24.9408C140.496 25.9283 141.657 26.4221 143.018 26.4221C144.379 26.4221 145.526 25.9283 146.461 24.9408C147.421 23.9533 147.902 22.6055 147.902 20.8975ZM200.25 9.72815L194.205 32.0668H186.639L183.116 17.5747L179.473 32.0668H171.947L165.862 9.72815H172.707L175.87 25.7015L179.633 9.72815H186.879L190.682 25.6214L193.805 9.72815H200.25ZM206.304 7.40621C205.103 7.40621 204.115 7.05925 203.341 6.36534C202.594 5.64474 202.22 4.76401 202.22 3.72314C202.22 2.65559 202.594 1.77485 203.341 1.08094C204.115 0.360337 205.103 3.67471e-05 206.304 3.67471e-05C207.478 3.67471e-05 208.439 0.360337 209.186 1.08094C209.96 1.77485 210.347 2.65559 210.347 3.72314C210.347 4.76401 209.96 5.64474 209.186 6.36534C208.439 7.05925 207.478 7.40621 206.304 7.40621ZM209.707 9.72815V32.0668H202.861V9.72815H209.707ZM227.118 26.2619V32.0668H223.635C221.153 32.0668 219.218 31.4663 217.83 30.2653C216.442 29.0376 215.749 27.0493 215.749 24.3003V15.4129H213.026V9.72815H215.749V4.28361H222.594V9.72815H227.078V15.4129H222.594V24.3804C222.594 25.0476 222.754 25.528 223.075 25.8216C223.395 26.1151 223.929 26.2619 224.676 26.2619H227.118ZM244.663 9.48795C247.225 9.48795 249.28 10.342 250.828 12.0501C252.376 13.7315 253.15 16.0534 253.15 19.0159V32.0668H246.344V19.9367C246.344 18.4421 245.957 17.2811 245.183 16.4538C244.409 15.6264 243.368 15.2127 242.061 15.2127C240.753 15.2127 239.712 15.6264 238.938 16.4538C238.164 17.2811 237.777 18.4421 237.777 19.9367V32.0668H230.931V2.44207H237.777V12.7307C238.471 11.7432 239.418 10.9558 240.619 10.3687C241.82 9.78152 243.168 9.48795 244.663 9.48795ZM273.236 12.8908C273.877 11.8499 274.797 11.0092 275.998 10.3687C277.199 9.72815 278.574 9.40788 280.122 9.40788C281.963 9.40788 283.632 9.87494 285.126 10.809C286.621 11.7432 287.795 13.0776 288.649 14.8124C289.53 16.5472 289.97 18.5622 289.97 20.8574C289.97 23.1527 289.53 25.181 288.649 26.9425C287.795 28.6773 286.621 30.0251 285.126 30.9859C283.632 31.92 281.963 32.387 280.122 32.387C278.547 32.387 277.173 32.0801 275.998 31.4663C274.824 30.8257 273.903 29.985 273.236 28.9442V32.0668H266.39V2.44207H273.236V12.8908ZM283.004 20.8574C283.004 19.1493 282.524 17.8149 281.563 16.8541C280.629 15.8666 279.468 15.3729 278.08 15.3729C276.719 15.3729 275.558 15.8666 274.597 16.8541C273.663 17.8416 273.196 19.1894 273.196 20.8975C273.196 22.6055 273.663 23.9533 274.597 24.9408C275.558 25.9283 276.719 26.4221 278.08 26.4221C279.441 26.4221 280.602 25.9283 281.563 24.9408C282.524 23.9266 283.004 22.5655 283.004 20.8574ZM316.381 9.72815L302.369 42.6756H295.003L300.127 31.3061L291.039 9.72815H298.686L303.85 23.6998L308.974 9.72815H316.381Z" fill="white"/>
<path d="M347.236 8.80738H334.746V14.332C335.28 13.7448 336.027 13.2644 336.988 12.8908C337.949 12.5171 338.989 12.3303 340.11 12.3303C342.112 12.3303 343.767 12.784 345.075 13.6915C346.409 14.5989 347.383 15.7732 347.997 17.2144C348.611 18.6556 348.918 20.2169 348.918 21.8983C348.918 25.0209 348.037 27.503 346.276 29.3445C344.514 31.1593 342.032 32.0668 338.829 32.0668C336.694 32.0668 334.839 31.7065 333.265 30.9859C331.69 30.2386 330.476 29.2111 329.622 27.9033C328.768 26.5955 328.301 25.0876 328.22 23.3795H334.906C335.066 24.2069 335.453 24.9008 336.067 25.4613C336.681 25.995 337.522 26.2619 338.589 26.2619C339.843 26.2619 340.778 25.8616 341.391 25.0609C342.005 24.2603 342.312 23.1927 342.312 21.8583C342.312 20.5505 341.992 19.5497 341.351 18.8558C340.711 18.1618 339.777 17.8149 338.549 17.8149C337.642 17.8149 336.894 18.0417 336.307 18.4955C335.72 18.9225 335.333 19.4963 335.146 20.2169H328.541V2.80237H347.236V8.80738ZM360.743 25.7415L356.299 37.2311H351.936L354.258 25.7415H360.743ZM364.19 17.0543C364.19 12.4638 365.071 8.84741 366.833 6.20521C368.621 3.56301 371.49 2.24191 375.44 2.24191C379.39 2.24191 382.245 3.56301 384.007 6.20521C385.795 8.84741 386.689 12.4638 386.689 17.0543C386.689 21.6981 385.795 25.3412 384.007 27.9834C382.245 30.6256 379.39 31.9467 375.44 31.9467C371.49 31.9467 368.621 30.6256 366.833 27.9834C365.071 25.3412 364.19 21.6981 364.19 17.0543ZM379.964 17.0543C379.964 14.3587 379.67 12.2903 379.083 10.8491C378.496 9.38119 377.281 8.64725 375.44 8.64725C373.598 8.64725 372.384 9.38119 371.797 10.8491C371.21 12.2903 370.916 14.3587 370.916 17.0543C370.916 18.8691 371.023 20.377 371.236 21.578C371.45 22.7523 371.877 23.7131 372.517 24.4604C373.185 25.181 374.159 25.5413 375.44 25.5413C376.721 25.5413 377.682 25.181 378.322 24.4604C378.989 23.7131 379.43 22.7523 379.643 21.578C379.857 20.377 379.964 18.8691 379.964 17.0543ZM390.306 17.0543C390.306 12.4638 391.187 8.84741 392.948 6.20521C394.736 3.56301 397.605 2.24191 401.555 2.24191C405.505 2.24191 408.361 3.56301 410.122 6.20521C411.911 8.84741 412.805 12.4638 412.805 17.0543C412.805 21.6981 411.911 25.3412 410.122 27.9834C408.361 30.6256 405.505 31.9467 401.555 31.9467C397.605 31.9467 394.736 30.6256 392.948 27.9834C391.187 25.3412 390.306 21.6981 390.306 17.0543ZM406.079 17.0543C406.079 14.3587 405.786 12.2903 405.198 10.8491C404.611 9.38119 403.397 8.64725 401.555 8.64725C399.714 8.64725 398.499 9.38119 397.912 10.8491C397.325 12.2903 397.032 14.3587 397.032 17.0543C397.032 18.8691 397.138 20.377 397.352 21.578C397.565 22.7523 397.992 23.7131 398.633 24.4604C399.3 25.181 400.274 25.5413 401.555 25.5413C402.836 25.5413 403.797 25.181 404.438 24.4604C405.105 23.7131 405.545 22.7523 405.759 21.578C405.972 20.377 406.079 18.8691 406.079 17.0543ZM416.421 17.0543C416.421 12.4638 417.302 8.84741 419.064 6.20521C420.852 3.56301 423.721 2.24191 427.671 2.24191C431.621 2.24191 434.477 3.56301 436.238 6.20521C438.026 8.84741 438.92 12.4638 438.92 17.0543C438.92 21.6981 438.026 25.3412 436.238 27.9834C434.477 30.6256 431.621 31.9467 427.671 31.9467C423.721 31.9467 420.852 30.6256 419.064 27.9834C417.302 25.3412 416.421 21.6981 416.421 17.0543ZM432.195 17.0543C432.195 14.3587 431.901 12.2903 431.314 10.8491C430.727 9.38119 429.512 8.64725 427.671 8.64725C425.829 8.64725 424.615 9.38119 424.028 10.8491C423.441 12.2903 423.147 14.3587 423.147 17.0543C423.147 18.8691 423.254 20.377 423.467 21.578C423.681 22.7523 424.108 23.7131 424.748 24.4604C425.416 25.181 426.39 25.5413 427.671 25.5413C428.952 25.5413 429.913 25.181 430.553 24.4604C431.22 23.7131 431.661 22.7523 431.874 21.578C432.088 20.377 432.195 18.8691 432.195 17.0543ZM463.514 21.1377H456.549V28.2636H450.063V21.1377H443.097V15.0126H450.063V7.84658H456.549V15.0126H463.514V21.1377ZM501.18 3.96334V32.0668H494.334V20.4971H483.685V32.0668H476.839V3.96334H483.685V14.9725H494.334V3.96334H501.18ZM504.76 20.8574C504.76 18.5622 505.187 16.5472 506.041 14.8124C506.922 13.0776 508.11 11.7432 509.604 10.809C511.099 9.87494 512.767 9.40788 514.609 9.40788C516.183 9.40788 517.558 9.72815 518.732 10.3687C519.933 11.0092 520.854 11.8499 521.494 12.8908V9.72815H528.34V32.0668H521.494V28.9041C520.827 29.945 519.893 30.7857 518.692 31.4262C517.518 32.0668 516.143 32.387 514.569 32.387C512.754 32.387 511.099 31.92 509.604 30.9859C508.11 30.0251 506.922 28.6773 506.041 26.9425C505.187 25.181 504.76 23.1527 504.76 20.8574ZM521.494 20.8975C521.494 19.1894 521.014 17.8416 520.053 16.8541C519.119 15.8666 517.971 15.3729 516.61 15.3729C515.249 15.3729 514.088 15.8666 513.127 16.8541C512.193 17.8149 511.726 19.1493 511.726 20.8574C511.726 22.5655 512.193 23.9266 513.127 24.9408C514.088 25.9283 515.249 26.4221 516.61 26.4221C517.971 26.4221 519.119 25.9283 520.053 24.9408C521.014 23.9533 521.494 22.6055 521.494 20.8975ZM540.138 12.8908C540.806 11.8499 541.726 11.0092 542.901 10.3687C544.075 9.72815 545.449 9.40788 547.024 9.40788C548.866 9.40788 550.534 9.87494 552.028 10.809C553.523 11.7432 554.697 13.0776 555.551 14.8124C556.432 16.5472 556.872 18.5622 556.872 20.8574C556.872 23.1527 556.432 25.181 555.551 26.9425C554.697 28.6773 553.523 30.0251 552.028 30.9859C550.534 31.92 548.866 32.387 547.024 32.387C545.476 32.387 544.102 32.0668 542.901 31.4262C541.726 30.7857 540.806 29.9583 540.138 28.9442V42.7156H533.293V9.72815H540.138V12.8908ZM549.906 20.8574C549.906 19.1493 549.426 17.8149 548.465 16.8541C547.531 15.8666 546.37 15.3729 544.982 15.3729C543.621 15.3729 542.46 15.8666 541.499 16.8541C540.565 17.8416 540.098 19.1894 540.098 20.8975C540.098 22.6055 540.565 23.9533 541.499 24.9408C542.46 25.9283 543.621 26.4221 544.982 26.4221C546.344 26.4221 547.504 25.9283 548.465 24.9408C549.426 23.9266 549.906 22.5655 549.906 20.8574ZM567.309 12.8908C567.977 11.8499 568.897 11.0092 570.072 10.3687C571.246 9.72815 572.621 9.40788 574.195 9.40788C576.037 9.40788 577.705 9.87494 579.199 10.809C580.694 11.7432 581.868 13.0776 582.722 14.8124C583.603 16.5472 584.043 18.5622 584.043 20.8574C584.043 23.1527 583.603 25.181 582.722 26.9425C581.868 28.6773 580.694 30.0251 579.199 30.9859C577.705 31.92 576.037 32.387 574.195 32.387C572.647 32.387 571.273 32.0668 570.072 31.4262C568.897 30.7857 567.977 29.9583 567.309 28.9442V42.7156H560.464V9.72815H567.309V12.8908ZM577.078 20.8574C577.078 19.1493 576.597 17.8149 575.636 16.8541C574.702 15.8666 573.541 15.3729 572.153 15.3729C570.792 15.3729 569.631 15.8666 568.671 16.8541C567.736 17.8416 567.269 19.1894 567.269 20.8975C567.269 22.6055 567.736 23.9533 568.671 24.9408C569.631 25.9283 570.792 26.4221 572.153 26.4221C573.515 26.4221 574.676 25.9283 575.636 24.9408C576.597 23.9266 577.078 22.5655 577.078 20.8574ZM610.454 9.72815L596.442 42.6756H589.076L594.2 31.3061L585.113 9.72815H592.759L597.923 23.6998L603.048 9.72815H610.454ZM638.427 17.6548C640.055 18.0017 641.363 18.8157 642.35 20.0968C643.338 21.3512 643.832 22.7924 643.832 24.4204C643.832 26.769 643.004 28.6372 641.35 30.0251C639.722 31.3862 637.44 32.0668 634.504 32.0668H621.413V3.96334H634.064C636.919 3.96334 639.148 4.61722 640.749 5.92498C642.377 7.23273 643.191 9.00755 643.191 11.2494C643.191 12.9041 642.751 14.2786 641.87 15.3729C641.016 16.4671 639.868 17.2277 638.427 17.6548ZM628.259 15.3328H632.742C633.863 15.3328 634.717 15.0926 635.305 14.6122C635.918 14.1051 636.225 13.3712 636.225 12.4104C636.225 11.4496 635.918 10.7156 635.305 10.2085C634.717 9.70146 633.863 9.44791 632.742 9.44791H628.259V15.3328ZM633.303 26.5422C634.451 26.5422 635.331 26.2886 635.945 25.7815C636.586 25.2478 636.906 24.4871 636.906 23.4996C636.906 22.5121 636.572 21.7382 635.905 21.1777C635.265 20.6172 634.37 20.337 633.223 20.337H628.259V26.5422H633.303ZM669.861 9.72815V32.0668H663.015V29.0242C662.321 30.0117 661.373 30.8124 660.172 31.4262C658.998 32.0134 657.69 32.307 656.249 32.307C654.541 32.307 653.033 31.9333 651.725 31.186C650.418 30.4121 649.403 29.3045 648.683 27.8633C647.962 26.4221 647.602 24.7273 647.602 22.779V9.72815H654.408V21.8583C654.408 23.3528 654.795 24.5138 655.569 25.3412C656.343 26.1685 657.383 26.5822 658.691 26.5822C660.026 26.5822 661.08 26.1685 661.854 25.3412C662.628 24.5138 663.015 23.3528 663.015 21.8583V9.72815H669.861ZM697.597 9.72815L683.585 42.6756H676.219L681.343 31.3061L672.256 9.72815H679.902L685.066 23.6998L690.191 9.72815H697.597ZM721.13 20.5372C721.13 21.1777 721.09 21.8449 721.01 22.5388H705.517C705.624 23.9266 706.064 24.9942 706.838 25.7415C707.639 26.4621 708.613 26.8224 709.76 26.8224C711.468 26.8224 712.656 26.1018 713.323 24.6606H720.609C720.236 26.1285 719.555 27.4496 718.568 28.6239C717.607 29.7982 716.393 30.719 714.925 31.3862C713.457 32.0534 711.815 32.387 710.001 32.387C707.812 32.387 705.864 31.92 704.156 30.9859C702.448 30.0518 701.113 28.7173 700.152 26.9825C699.192 25.2478 698.711 23.2194 698.711 20.8975C698.711 18.5755 699.178 16.5472 700.112 14.8124C701.073 13.0776 702.408 11.7432 704.116 10.809C705.824 9.87494 707.785 9.40788 710.001 9.40788C712.162 9.40788 714.084 9.86159 715.765 10.769C717.447 11.6764 718.755 12.9708 719.689 14.6523C720.649 16.3337 721.13 18.2953 721.13 20.5372ZM714.124 18.7357C714.124 17.5613 713.724 16.6272 712.923 15.9333C712.122 15.2394 711.121 14.8925 709.92 14.8925C708.773 14.8925 707.799 15.2261 706.998 15.8933C706.224 16.5605 705.744 17.508 705.557 18.7357H714.124ZM731.587 13.4512C732.388 12.2236 733.388 11.2628 734.589 10.5688C735.79 9.84825 737.125 9.48795 738.593 9.48795V16.734H736.711C735.003 16.734 733.722 17.1076 732.868 17.8549C732.014 18.5755 731.587 19.8566 731.587 21.6981V32.0668H724.741V9.72815H731.587V13.4512ZM750.953 32.387C749.004 32.387 747.269 32.0534 745.748 31.3862C744.227 30.719 743.026 29.8116 742.145 28.6639C741.264 27.4896 740.771 26.1819 740.664 24.7407H747.43C747.51 25.5146 747.87 26.1418 748.51 26.6222C749.151 27.1026 749.938 27.3428 750.872 27.3428C751.726 27.3428 752.38 27.1827 752.834 26.8624C753.314 26.5155 753.555 26.0751 753.555 25.5413C753.555 24.9008 753.221 24.4337 752.554 24.1402C751.887 23.8199 750.806 23.4729 749.311 23.0993C747.71 22.7256 746.375 22.3387 745.308 21.9383C744.24 21.5113 743.319 20.8574 742.545 19.9767C741.772 19.0693 741.385 17.8549 741.385 16.3337C741.385 15.0526 741.731 13.8916 742.425 12.8507C743.146 11.7832 744.187 10.9425 745.548 10.3286C746.936 9.7148 748.577 9.40788 750.472 9.40788C753.274 9.40788 755.476 10.1018 757.078 11.4896C758.706 12.8774 759.64 14.719 759.88 17.0142H753.555C753.448 16.2402 753.101 15.6264 752.514 15.1727C751.953 14.719 751.206 14.4921 750.272 14.4921C749.471 14.4921 748.857 14.6523 748.43 14.9725C748.003 15.2661 747.79 15.6798 747.79 16.2136C747.79 16.8541 748.123 17.3345 748.791 17.6548C749.485 17.975 750.552 18.2953 751.993 18.6156C753.648 19.0426 754.996 19.4696 756.037 19.8966C757.078 20.297 757.985 20.9642 758.759 21.8983C759.56 22.8057 759.973 24.0334 760 25.5814C760 26.8891 759.626 28.0634 758.879 29.1043C758.159 30.1185 757.104 30.9191 755.716 31.5063C754.355 32.0935 752.767 32.387 750.953 32.387Z" fill="url(#paint0_linear_1_63)"/>
<defs>
<linearGradient id="paint0_linear_1_63" x1="-0.9608" y1="58.5889" x2="827.73" y2="58.5889" gradientUnits="userSpaceOnUse">
<stop stop-color="#3DFF88"/>
<stop offset="1" stop-color="#80FFB1"/>
</linearGradient>
</defs>
</svg>
