<svg width="401" height="41" viewBox="0 0 401 41" fill="none" xmlns="http://www.w3.org/2000/svg">
<path d="M40.1679 1.52191L32.8392 29.6355H24.5493L20.0639 11.1334L15.4184 29.6355H7.1285L1.4919e-08 1.52191H7.32874L11.3736 21.9863L16.3795 1.52191H23.9085L28.7143 21.9863L32.7991 1.52191H40.1679ZM57.3387 7.04851C59.9018 7.04851 61.9576 7.90286 63.5061 9.61156C65.0546 11.2936 65.8288 13.6163 65.8288 16.5799V29.6355H59.0207V17.501C59.0207 16.0059 58.6336 14.8445 57.8593 14.0168C57.0851 13.1892 56.0438 12.7753 54.7356 12.7753C53.4274 12.7753 52.3861 13.1892 51.6119 14.0168C50.8376 14.8445 50.4505 16.0059 50.4505 17.501V29.6355H43.6023V9.7391e-05H50.4505V10.2924C51.1447 9.30453 52.0925 8.51692 53.2939 7.92956C54.4953 7.34219 55.8436 7.04851 57.3387 7.04851ZM93.4149 7.28879L79.3982 40.2481H72.0294L77.1555 28.8745L68.0646 7.28879H75.7138L80.8799 21.2655L86.006 7.28879H93.4149ZM103.217 15.5386C103.217 12.762 103.817 10.2924 105.019 8.1298C106.22 5.94052 107.889 4.24516 110.025 3.04373C112.187 1.8156 114.63 1.20153 117.353 1.20153C120.691 1.20153 123.547 2.08258 125.924 3.84468C128.3 5.60679 129.888 8.00965 130.689 11.0533H123.16C122.6 9.87855 121.799 8.98415 120.758 8.37008C119.743 7.75602 118.582 7.44898 117.273 7.44898C115.164 7.44898 113.455 8.18319 112.147 9.65161C110.839 11.12 110.185 13.0824 110.185 15.5386C110.185 17.9949 110.839 19.9572 112.147 21.4257C113.455 22.8941 115.164 23.6283 117.273 23.6283C118.582 23.6283 119.743 23.3213 120.758 22.7072C121.799 22.0931 122.6 21.1987 123.16 20.024H130.689C129.888 23.0676 128.3 25.4705 125.924 27.2326C123.547 28.968 120.691 29.8357 117.353 29.8357C114.63 29.8357 112.187 29.235 110.025 28.0335C107.889 26.8054 106.22 25.1101 105.019 22.9475C103.817 20.7849 103.217 18.3153 103.217 15.5386ZM148.619 7.04851C151.183 7.04851 153.238 7.90286 154.787 9.61156C156.335 11.2936 157.11 13.6163 157.11 16.5799V29.6355H150.301V17.501C150.301 16.0059 149.914 14.8445 149.14 14.0168C148.366 13.1892 147.325 12.7753 146.016 12.7753C144.708 12.7753 143.667 13.1892 142.893 14.0168C142.118 14.8445 141.731 16.0059 141.731 17.501V29.6355H134.883V9.7391e-05H141.731V10.2924C142.425 9.30453 143.373 8.51692 144.575 7.92956C145.776 7.34219 147.124 7.04851 148.619 7.04851ZM172.041 29.9558C169.851 29.9558 167.876 29.4886 166.113 28.5542C164.378 27.6197 163.003 26.2848 161.989 24.5494C161.001 22.814 160.507 20.7849 160.507 18.4621C160.507 16.1661 161.014 14.1503 162.029 12.4149C163.043 10.6528 164.431 9.30453 166.194 8.37008C167.956 7.43563 169.931 6.96841 172.121 6.96841C174.31 6.96841 176.286 7.43563 178.048 8.37008C179.81 9.30453 181.198 10.6528 182.213 12.4149C183.227 14.1503 183.735 16.1661 183.735 18.4621C183.735 20.7582 183.214 22.7873 182.173 24.5494C181.158 26.2848 179.756 27.6197 177.968 28.5542C176.206 29.4886 174.23 29.9558 172.041 29.9558ZM172.041 24.0288C173.349 24.0288 174.457 23.5482 175.365 22.587C176.299 21.6259 176.766 20.2509 176.766 18.4621C176.766 16.6733 176.312 15.2983 175.405 14.3372C174.524 13.3761 173.429 12.8955 172.121 12.8955C170.786 12.8955 169.678 13.3761 168.797 14.3372C167.916 15.2716 167.475 16.6466 167.475 18.4621C167.475 20.2509 167.902 21.6259 168.757 22.587C169.638 23.5482 170.732 24.0288 172.041 24.0288ZM197.54 29.9558C195.35 29.9558 193.375 29.4886 191.613 28.5542C189.877 27.6197 188.502 26.2848 187.488 24.5494C186.5 22.814 186.006 20.7849 186.006 18.4621C186.006 16.1661 186.513 14.1503 187.528 12.4149C188.542 10.6528 189.931 9.30453 191.693 8.37008C193.455 7.43563 195.431 6.96841 197.62 6.96841C199.809 6.96841 201.785 7.43563 203.547 8.37008C205.309 9.30453 206.697 10.6528 207.712 12.4149C208.726 14.1503 209.234 16.1661 209.234 18.4621C209.234 20.7582 208.713 22.7873 207.672 24.5494C206.657 26.2848 205.256 27.6197 203.467 28.5542C201.705 29.4886 199.729 29.9558 197.54 29.9558ZM197.54 24.0288C198.848 24.0288 199.956 23.5482 200.864 22.587C201.798 21.6259 202.265 20.2509 202.265 18.4621C202.265 16.6733 201.811 15.2983 200.904 14.3372C200.023 13.3761 198.928 12.8955 197.62 12.8955C196.285 12.8955 195.177 13.3761 194.296 14.3372C193.415 15.2716 192.974 16.6466 192.974 18.4621C192.974 20.2509 193.401 21.6259 194.256 22.587C195.137 23.5482 196.232 24.0288 197.54 24.0288ZM221.958 29.9558C220.009 29.9558 218.273 29.6221 216.751 28.9546C215.23 28.2872 214.028 27.3794 213.147 26.2314C212.266 25.0567 211.772 23.7484 211.665 22.3067H218.433C218.513 23.081 218.874 23.7084 219.515 24.189C220.155 24.6695 220.943 24.9098 221.878 24.9098C222.732 24.9098 223.386 24.7496 223.84 24.4292C224.32 24.0822 224.561 23.6416 224.561 23.1077C224.561 22.4669 224.227 21.9997 223.56 21.706C222.892 21.3856 221.811 21.0385 220.316 20.6648C218.714 20.291 217.379 19.9038 216.311 19.5034C215.243 19.0762 214.322 18.4221 213.548 17.541C212.773 16.6333 212.386 15.4185 212.386 13.8967C212.386 12.6151 212.733 11.4538 213.427 10.4125C214.148 9.34458 215.19 8.50357 216.551 7.88951C217.939 7.27544 219.581 6.96841 221.477 6.96841C224.28 6.96841 226.483 7.66257 228.085 9.0509C229.714 10.4392 230.648 12.2814 230.888 14.5775H224.561C224.454 13.8032 224.107 13.1892 223.519 12.7353C222.959 12.2814 222.211 12.0545 221.277 12.0545C220.476 12.0545 219.862 12.2147 219.435 12.5351C219.007 12.8287 218.794 13.2426 218.794 13.7765C218.794 14.4173 219.128 14.8979 219.795 15.2183C220.489 15.5386 221.557 15.859 222.999 16.1794C224.654 16.6066 226.002 17.0338 227.044 17.4609C228.085 17.8614 228.993 18.5289 229.767 19.4633C230.568 20.3711 230.982 21.5992 231.008 23.1477C231.008 24.4559 230.635 25.6307 229.887 26.6719C229.166 27.6865 228.112 28.4874 226.723 29.0748C225.362 29.6622 223.773 29.9558 221.958 29.9558ZM256.263 18.1017C256.263 18.7425 256.223 19.4099 256.143 20.1041H240.645C240.751 21.4924 241.192 22.5603 241.966 23.3079C242.767 24.0288 243.742 24.3892 244.89 24.3892C246.598 24.3892 247.786 23.6683 248.454 22.2266H255.743C255.369 23.695 254.688 25.0166 253.7 26.1913C252.739 27.3661 251.524 28.2872 250.056 28.9546C248.587 29.6221 246.945 29.9558 245.13 29.9558C242.941 29.9558 240.992 29.4886 239.283 28.5542C237.574 27.6197 236.239 26.2848 235.278 24.5494C234.317 22.814 233.836 20.7849 233.836 18.4621C233.836 16.1394 234.304 14.1103 235.238 12.3749C236.199 10.6395 237.534 9.30453 239.243 8.37008C240.952 7.43563 242.914 6.96841 245.13 6.96841C247.293 6.96841 249.215 7.42228 250.897 8.33004C252.579 9.23778 253.887 10.5327 254.822 12.2147C255.783 13.8967 256.263 15.859 256.263 18.1017ZM249.255 16.2995C249.255 15.1248 248.854 14.1904 248.053 13.4962C247.252 12.802 246.251 12.455 245.05 12.455C243.902 12.455 242.927 12.7887 242.126 13.4562C241.352 14.1236 240.872 15.0714 240.685 16.2995H249.255Z" fill="white"/>
<path d="M282.7 29.6355L276.853 19.0228H275.211V29.6355H268.363V1.52191H279.856C282.072 1.52191 283.955 1.90904 285.503 2.6833C287.078 3.45755 288.253 4.52549 289.027 5.88712C289.802 7.22205 290.189 8.71716 290.189 10.3725C290.189 12.2414 289.655 13.91 288.587 15.3784C287.546 16.8469 285.997 17.8881 283.941 18.5022L290.429 29.6355H282.7ZM275.211 14.177H279.456C280.711 14.177 281.645 13.87 282.259 13.2559C282.9 12.6418 283.22 11.7741 283.22 10.6528C283.22 9.58487 282.9 8.74386 282.259 8.1298C281.645 7.51573 280.711 7.2087 279.456 7.2087H275.211V14.177ZM304.66 29.9558C302.47 29.9558 300.495 29.4886 298.733 28.5542C296.997 27.6197 295.622 26.2848 294.608 24.5494C293.62 22.814 293.126 20.7849 293.126 18.4621C293.126 16.1661 293.633 14.1503 294.648 12.4149C295.662 10.6528 297.051 9.30453 298.813 8.37008C300.575 7.43563 302.551 6.96841 304.74 6.96841C306.929 6.96841 308.905 7.43563 310.667 8.37008C312.429 9.30453 313.817 10.6528 314.832 12.4149C315.846 14.1503 316.354 16.1661 316.354 18.4621C316.354 20.7582 315.833 22.7873 314.792 24.5494C313.777 26.2848 312.376 27.6197 310.587 28.5542C308.825 29.4886 306.849 29.9558 304.66 29.9558ZM304.66 24.0288C305.968 24.0288 307.076 23.5482 307.984 22.587C308.918 21.6259 309.385 20.2509 309.385 18.4621C309.385 16.6733 308.931 15.2983 308.024 14.3372C307.143 13.3761 306.048 12.8955 304.74 12.8955C303.405 12.8955 302.297 13.3761 301.416 14.3372C300.535 15.2716 300.094 16.6466 300.094 18.4621C300.094 20.2509 300.521 21.6259 301.376 22.587C302.257 23.5482 303.351 24.0288 304.66 24.0288ZM318.625 18.4621C318.625 16.1394 319.092 14.1103 320.027 12.3749C320.988 10.6395 322.31 9.30453 323.992 8.37008C325.7 7.43563 327.649 6.96841 329.838 6.96841C332.642 6.96841 334.978 7.70262 336.847 9.17104C338.742 10.6395 339.984 12.7086 340.571 15.3784H333.283C332.669 13.6697 331.48 12.8154 329.718 12.8154C328.464 12.8154 327.462 13.3093 326.715 14.2972C325.967 15.2583 325.593 16.6466 325.593 18.4621C325.593 20.2776 325.967 21.6793 326.715 22.6671C327.462 23.6283 328.464 24.1089 329.718 24.1089C331.48 24.1089 332.669 23.2545 333.283 21.5458H340.571C339.984 24.1623 338.742 26.218 336.847 27.7132C334.951 29.2083 332.615 29.9558 329.838 29.9558C327.649 29.9558 325.7 29.4886 323.992 28.5542C322.31 27.6197 320.988 26.2848 320.027 24.5494C319.092 22.814 318.625 20.7849 318.625 18.4621ZM342.873 18.4221C342.873 16.126 343.3 14.1103 344.154 12.3749C345.035 10.6395 346.223 9.30453 347.719 8.37008C349.214 7.43563 350.882 6.96841 352.725 6.96841C354.3 6.96841 355.675 7.28879 356.849 7.92956C358.051 8.57032 358.972 9.41132 359.613 10.4526V7.28879H366.461V29.6355H359.613V26.4717C358.945 27.5129 358.011 28.3539 356.809 28.9947C355.635 29.6355 354.26 29.9558 352.685 29.9558C350.869 29.9558 349.214 29.4886 347.719 28.5542C346.223 27.593 345.035 26.2447 344.154 24.5093C343.3 22.7472 342.873 20.7181 342.873 18.4221ZM359.613 18.4621C359.613 16.7534 359.132 15.4051 358.171 14.4173C357.237 13.4295 356.089 12.9355 354.727 12.9355C353.365 12.9355 352.204 13.4295 351.243 14.4173C350.308 15.3784 349.841 16.7134 349.841 18.4221C349.841 20.1308 350.308 21.4924 351.243 22.5069C352.204 23.4948 353.365 23.9887 354.727 23.9887C356.089 23.9887 357.237 23.4948 358.171 22.5069C359.132 21.5191 359.613 20.1708 359.613 18.4621ZM378.263 11.0132C379.064 9.7851 380.066 8.82396 381.267 8.1298C382.468 7.40894 383.803 7.04851 385.272 7.04851V14.2972H383.39C381.681 14.2972 380.399 14.6709 379.545 15.4185C378.691 16.1394 378.263 17.4209 378.263 19.2631V29.6355H371.415V7.28879H378.263V11.0132ZM401 23.8285V29.6355H397.516C395.033 29.6355 393.097 29.0347 391.709 27.8333C390.321 26.6052 389.626 24.6161 389.626 21.8662V12.9756H386.903V7.28879H389.626V1.8423H396.475V7.28879H400.96V12.9756H396.475V21.9463C396.475 22.6137 396.635 23.0943 396.955 23.388C397.276 23.6817 397.809 23.8285 398.557 23.8285H401Z" fill="url(#paint0_linear_1_141)"/>
<defs>
<linearGradient id="paint0_linear_1_141" x1="-1.00119" y1="56.1671" x2="827.988" y2="56.1671" gradientUnits="userSpaceOnUse">
<stop stop-color="#3DFF88"/>
<stop offset="1" stop-color="#80FFB1"/>
</linearGradient>
</defs>
</svg>
